<svg width="10" height="10" viewBox="0 0 10 10" fill="none" xmlns="http://www.w3.org/2000/svg">
	<g transform="translate(1, 1)">
		<path d="M6.89486 3.72098C6.84152 3.90322 6.84117 4.09688 6.89385 4.27931L7.5353 6.50077C7.7541 7.25851 7.05059 7.95947 6.29365 7.73793L4.08486 7.09145C3.90144 7.03777 3.70647 7.03777 3.52305 7.09146L1.32179 7.73574C0.563291 7.95775 -0.140849 7.25361 0.0811483 6.49511L0.72512 4.29485C0.778992 4.11078 0.778797 3.91511 0.724561 3.73115L0.0719046 1.51752C-0.151641 0.759308 0.551403 0.0537188 1.31041 0.274523L3.53669 0.922171C3.71967 0.975399 3.91404 0.975241 4.09692 0.921714L6.29907 0.277192C7.05757 0.0551944 7.7617 0.759335 7.5397 1.51783L6.89486 3.72098Z"
			  fill="#FFF6EA"/>
	</g>
</svg>
