<svg width="46" height="46" viewBox="0 0 46 46" fill="none" xmlns="http://www.w3.org/2000/svg">
	<g transform="translate(1, 1)">
		<circle cx="22" cy="22" r="20.75" fill="#EAE3DA" stroke="#FDF7EE" stroke-width="1.5"/>
		<path d="M17.2168 29.8237H17.0002C16.2145 29.8237 15.8217 29.8237 15.5776 29.5796C15.3335 29.3355 15.3335 28.9427 15.3335 28.157V27.2304C15.3335 26.7983 15.3335 26.5822 15.4445 26.3893C15.5555 26.1964 15.7229 26.099 16.0577 25.9042C18.2623 24.622 21.3931 23.9003 23.4827 25.1466C23.6231 25.2303 23.7494 25.3314 23.8573 25.4526C24.3224 25.975 24.2885 26.7634 23.7525 27.2312C23.6393 27.33 23.5186 27.405 23.3971 27.431C23.497 27.4194 23.5927 27.4062 23.684 27.3916C24.4435 27.2705 25.081 26.8646 25.6647 26.4237L27.1707 25.286C27.7016 24.885 28.4896 24.8849 29.0206 25.2859C29.4987 25.6468 29.6448 26.2412 29.3426 26.7256C28.9901 27.2906 28.4936 28.0133 28.0168 28.4549C27.5393 28.8972 26.8284 29.292 26.2481 29.5721C25.6052 29.8824 24.895 30.0612 24.1726 30.1781C22.7075 30.4153 21.1806 30.3791 19.7304 30.0803C18.9106 29.9114 18.0592 29.8237 17.2168 29.8237Z"
			  fill="#A0968A"/>
		<path d="M21.0509 14.8029C21.4731 14.0455 21.6842 13.6667 21.9998 13.6667C22.3155 13.6667 22.5266 14.0455 22.9488 14.8029L23.058 14.9988C23.178 15.2141 23.238 15.3217 23.3315 15.3927C23.4251 15.4637 23.5416 15.49 23.7745 15.5428L23.9867 15.5908C24.8066 15.7763 25.2165 15.869 25.314 16.1827C25.4116 16.4963 25.1321 16.8231 24.5731 17.4767L24.4285 17.6458C24.2697 17.8316 24.1903 17.9244 24.1545 18.0393C24.1188 18.1542 24.1308 18.2781 24.1548 18.5259L24.1767 18.7515C24.2612 19.6236 24.3035 20.0596 24.0481 20.2535C23.7928 20.4473 23.4089 20.2706 22.6413 19.9171L22.4427 19.8257C22.2245 19.7253 22.1155 19.675 21.9998 19.675C21.8842 19.675 21.7751 19.7253 21.557 19.8257L21.3584 19.9171C20.5907 20.2706 20.2069 20.4473 19.9516 20.2535C19.6962 20.0596 19.7385 19.6236 19.823 18.7515L19.8448 18.5259C19.8688 18.2781 19.8809 18.1542 19.8451 18.0393C19.8094 17.9244 19.73 17.8316 19.5711 17.6458L19.4265 17.4767C18.8676 16.8231 18.5881 16.4963 18.6856 16.1827C18.7832 15.869 19.1931 15.7763 20.013 15.5908L20.2251 15.5428C20.4581 15.49 20.5746 15.4637 20.6682 15.3927C20.7617 15.3217 20.8217 15.2141 20.9417 14.9988L21.0509 14.8029Z"
			  fill="#A0968A"/>
		<path d="M28.192 18.4015C28.4031 18.0228 28.5087 17.8334 28.6665 17.8334C28.8243 17.8334 28.9299 18.0228 29.141 18.4015L29.1956 18.4995C29.2556 18.6071 29.2856 18.6609 29.3323 18.6964C29.3791 18.7319 29.4374 18.7451 29.5539 18.7714L29.6599 18.7954C30.0699 18.8882 30.2748 18.9346 30.3236 19.0914C30.3724 19.2482 30.2326 19.4116 29.9532 19.7384L29.8809 19.823C29.8014 19.9158 29.7617 19.9623 29.7439 20.0197C29.726 20.0771 29.732 20.1391 29.744 20.263L29.7549 20.3758C29.7972 20.8118 29.8183 21.0299 29.6906 21.1268C29.563 21.2237 29.3711 21.1353 28.9872 20.9586L28.8879 20.9129C28.7788 20.8627 28.7243 20.8376 28.6665 20.8376C28.6087 20.8376 28.5542 20.8627 28.4451 20.9129L28.3458 20.9586C27.9619 21.1353 27.77 21.2237 27.6424 21.1268C27.5147 21.0299 27.5358 20.8118 27.5781 20.3758L27.589 20.263C27.601 20.1391 27.607 20.0771 27.5891 20.0197C27.5713 19.9623 27.5316 19.9158 27.4522 19.823L27.3799 19.7384C27.1004 19.4116 26.9606 19.2482 27.0094 19.0914C27.0582 18.9346 27.2631 18.8882 27.6731 18.7954L27.7792 18.7714C27.8956 18.7451 27.9539 18.7319 28.0007 18.6964C28.0474 18.6609 28.0774 18.6071 28.1374 18.4995L28.192 18.4015Z"
			  fill="#A0968A"/>
		<path d="M14.8587 18.4015C15.0698 18.0228 15.1754 17.8334 15.3332 17.8334C15.491 17.8334 15.5965 18.0228 15.8076 18.4015L15.8623 18.4995C15.9222 18.6071 15.9522 18.6609 15.999 18.6964C16.0458 18.7319 16.104 18.7451 16.2205 18.7714L16.3266 18.7954C16.7365 18.8882 16.9415 18.9346 16.9903 19.0914C17.039 19.2482 16.8993 19.4116 16.6198 19.7384L16.5475 19.823C16.4681 19.9158 16.4284 19.9623 16.4105 20.0197C16.3927 20.0771 16.3987 20.1391 16.4107 20.263L16.4216 20.3758C16.4639 20.8118 16.485 21.0299 16.3573 21.1268C16.2296 21.2237 16.0377 21.1353 15.6539 20.9586L15.5546 20.9129C15.4455 20.8627 15.391 20.8376 15.3332 20.8376C15.2754 20.8376 15.2208 20.8627 15.1118 20.9129L15.0124 20.9586C14.6286 21.1353 14.4367 21.2237 14.309 21.1268C14.1814 21.0299 14.2025 20.8118 14.2447 20.3758L14.2557 20.263C14.2677 20.1391 14.2737 20.0771 14.2558 20.0197C14.238 19.9623 14.1982 19.9158 14.1188 19.823L14.0465 19.7384C13.767 19.4116 13.6273 19.2482 13.6761 19.0914C13.7248 18.9346 13.9298 18.8882 14.3398 18.7954L14.4458 18.7714C14.5623 18.7451 14.6206 18.7319 14.6673 18.6964C14.7141 18.6609 14.7441 18.6071 14.8041 18.4995L14.8587 18.4015Z"
			  fill="#A0968A"/>
	</g>
</svg>
