<svg width="46" height="46" viewBox="0 0 46 46" fill="none" xmlns="http://www.w3.org/2000/svg">
	<g transform="translate(1, 1)">
		<circle cx="22" cy="22" r="20.75" fill="#EAE3DA" stroke="#FDF7EE" stroke-width="1.5"/>
		<rect width="20" height="20" transform="translate(12 12)" fill="#EAE3DA"/>
		<path d="M17.8332 16.1667C15.532 16.1667 13.6665 18.0322 13.6665 20.3334C13.6665 22.042 14.6949 23.5104 16.1665 24.1534V26.3751H27.8332L27.8332 24.1534C29.3048 23.5104 30.3332 22.042 30.3332 20.3334C30.3332 18.0322 28.4677 16.1667 26.1665 16.1667C25.9577 16.1667 25.7526 16.1821 25.552 16.2117C25.0502 14.7318 23.6494 13.6667 21.9998 13.6667C20.3503 13.6667 18.9495 14.7318 18.4476 16.2117C18.2471 16.1821 18.0419 16.1667 17.8332 16.1667Z"
			  fill="#A0968A"/>
		<path d="M27.8318 27.6251H16.1679C16.1764 28.7892 16.236 29.4266 16.6547 29.8453C17.1428 30.3334 17.9285 30.3334 19.4998 30.3334H24.4998C26.0712 30.3334 26.8569 30.3334 27.345 29.8453C27.7636 29.4266 27.8233 28.7892 27.8318 27.6251Z"
			  fill="#A0968A"/>
	</g>
</svg>
