<svg width="46" height="46" viewBox="0 0 46 46" fill="none" xmlns="http://www.w3.org/2000/svg">
	<g transform="translate(1, 1)">
		<circle cx="22" cy="22" r="20.75" fill="#EAE3DA" stroke="#FDF7EE" stroke-width="1.5"/>
		<path d="M19.9704 19.2754L20.399 20.8271C20.8032 22.2901 21.0053 23.0216 21.5995 23.3543C22.1936 23.687 22.9478 23.491 24.4562 23.099L26.0561 22.6832C27.5645 22.2912 28.3187 22.0952 28.6617 21.519C29.0048 20.9427 28.8027 20.2112 28.3985 18.7482L27.9698 17.1965C27.5656 15.7335 27.3635 15.002 26.7694 14.6693C26.1752 14.3366 25.421 14.5326 23.9127 14.9246L22.3128 15.3404C20.8044 15.7324 20.0502 15.9284 19.7071 16.5047C19.3641 17.0809 19.5662 17.8124 19.9704 19.2754Z"
			  fill="#A0968A"/>
		<path d="M13.8979 16.3725C13.9902 16.0398 14.3346 15.845 14.6673 15.9373L16.087 16.3312C16.8511 16.5432 17.4558 17.1322 17.6667 17.8957L19.4592 24.3841L19.5911 24.8396C20.1187 25.0365 20.5719 25.4055 20.8595 25.8956L21.1178 25.8159L28.5096 23.8949C28.8437 23.8081 29.1849 24.0085 29.2717 24.3426C29.3586 24.6767 29.1581 25.0179 28.824 25.1047L21.4596 27.0186L21.1857 27.1031C21.1801 28.1623 20.4494 29.1295 19.3436 29.4169C18.0182 29.7613 16.6559 28.9985 16.3008 27.713C15.9456 26.4275 16.7322 25.1062 18.0576 24.7617C18.1232 24.7447 18.189 24.7303 18.2548 24.7186L16.4618 18.2286C16.3716 17.902 16.1075 17.6341 15.7528 17.5357L14.3331 17.1418C14.0005 17.0495 13.8056 16.7051 13.8979 16.3725Z"
			  fill="#A0968A"/>
	</g>
</svg>
