<svg width="225" height="88" viewBox="0 0 225 88" fill="none" xmlns="http://www.w3.org/2000/svg">
<rect x="4.30846" y="-0.584446" width="221.106" height="76" rx="38" transform="rotate(3.31393 4.30846 -0.584446)" fill="#FF6E00"/>
<rect x="4.30846" y="-0.584446" width="221.106" height="76" rx="38" transform="rotate(3.31393 4.30846 -0.584446)" stroke="#171008" stroke-width="3"/>
<path d="M29.4256 47.4478C28.8666 47.4154 28.4785 47.3368 28.2613 47.2121C28.0452 47.0687 27.9469 46.8293 27.9663 46.4938C27.989 46.1025 28.2605 45.7723 28.781 45.5033C29.4143 45.2221 29.8333 44.9285 30.038 44.6224C30.2438 44.2978 30.3677 43.7721 30.4098 43.0453L31.0281 32.3672C31.0594 31.8268 31.0365 31.4141 30.9595 31.1291C30.9012 30.8453 30.7749 30.6043 30.5807 30.406C30.4051 30.2089 30.1002 29.9856 29.6659 29.736C29.1811 29.3901 28.9495 29.0308 28.971 28.6581C28.9905 28.3226 29.1059 28.1049 29.3174 28.005C29.5486 27.8875 29.953 27.8455 30.5307 27.8789C31.537 27.9372 32.7592 27.9799 34.1974 28.0071C34.7948 28.023 35.4295 28.041 36.1015 28.0613C36.7921 28.0825 37.4542 28.1115 38.0878 28.1482C40.5104 28.2885 42.2471 28.8098 43.2981 29.712C44.3687 30.5967 44.8668 31.682 44.7924 32.9679C44.7255 34.1233 44.4423 34.9763 43.943 35.527C43.4623 36.0788 42.8659 36.5304 42.1537 36.8819C42.0189 36.9489 41.9489 37.0289 41.9435 37.1221C41.937 37.2339 42.016 37.3226 42.1805 37.3883C43.152 37.725 44.0234 38.3364 44.7948 39.2225C45.5662 40.1085 45.9104 41.269 45.8273 42.704C45.7183 44.5861 44.9358 45.9899 43.4799 46.9153C42.024 47.8407 39.8797 48.2214 37.0471 48.0574C36.3763 48.0185 35.6226 47.9562 34.7862 47.8704C33.9487 47.8032 33.3249 47.7577 32.9149 47.734C31.6882 47.6068 30.5251 47.5114 29.4256 47.4478ZM37.0249 36.3325C37.9566 36.3864 38.7281 36.1413 39.3393 35.597C39.9701 35.0352 40.3163 34.2232 40.3778 33.161C40.435 32.1733 40.209 31.3936 39.6999 30.8219C39.1908 30.2502 38.4983 29.9389 37.6224 29.8882L36.1129 29.8008C35.7961 29.7825 35.5676 29.8534 35.4275 30.0136C35.306 30.1748 35.2344 30.4418 35.2128 30.8145L34.9506 35.3429C34.9323 35.6597 34.9659 35.886 35.0515 36.0219C35.1558 36.1588 35.3756 36.237 35.7111 36.2564L37.0249 36.3325ZM36.8331 45.9415C38.0444 46.0116 39.0334 45.7229 39.8001 45.0755C40.5865 44.4105 41.0191 43.3978 41.0979 42.0375C41.168 40.8262 40.8767 39.8837 40.2239 39.2102C39.5897 38.5378 38.6763 38.167 37.4836 38.0979L36.058 38.0154C35.2194 37.9668 34.7807 38.278 34.7418 38.9489L34.431 44.3159C34.3739 45.3036 34.7739 45.8222 35.6311 45.8719L36.8331 45.9415ZM56.8988 49.3751C54.9607 49.2629 53.2607 48.7531 51.7987 47.8457C50.3564 46.9208 49.2509 45.6695 48.4822 44.0918C47.7331 42.4965 47.418 40.6739 47.5366 38.624C47.6478 36.7045 48.1576 35.0045 49.066 33.5238C49.9931 32.0443 51.2362 30.9196 52.7953 30.1498C54.3555 29.3613 56.1139 29.0237 58.0707 29.137C60.0088 29.2492 61.7083 29.7684 63.1692 30.6944C64.6312 31.6017 65.7465 32.8443 66.5153 34.422C67.284 35.9998 67.6096 37.8043 67.492 39.8355C67.3798 41.7736 66.8601 43.4824 65.933 44.962C65.0246 46.4426 63.781 47.5766 62.2021 48.364C60.6419 49.1525 58.8742 49.4895 56.8988 49.3751ZM57.8061 47.2681C58.6261 47.3155 59.3932 47.1449 60.1076 46.7562C60.8219 46.3675 61.3996 45.7559 61.8405 44.9213C62.3012 44.0692 62.5683 43.0095 62.6416 41.7423C62.7344 40.1397 62.5653 38.5406 62.1341 36.945C61.704 35.3307 61.0523 33.9935 60.1787 32.9332C59.3239 31.874 58.3187 31.311 57.1634 31.2441C55.8775 31.1696 54.7867 31.602 53.8909 32.5411C52.9951 33.4802 52.4938 34.8722 52.387 36.7171C52.2942 38.3198 52.4535 39.9277 52.8649 41.5408C53.295 43.1551 53.9369 44.5011 54.7907 45.5789C55.6642 46.6392 56.6694 47.2022 57.8061 47.2681ZM69.6902 49.7792C69.1312 49.7469 68.743 49.6683 68.5259 49.5435C68.3098 49.4001 68.2115 49.1607 68.2309 48.8253C68.2536 48.4339 68.5251 48.1037 69.0455 47.8347C69.6986 47.536 70.1187 47.2237 70.3058 46.898C70.5116 46.5733 70.6371 46.0197 70.6824 45.237L71.2781 34.9502C71.3266 34.1116 71.2675 33.5192 71.1005 33.173C70.9347 32.8081 70.5447 32.4396 69.9305 32.0675C69.4446 31.7402 69.213 31.3809 69.2356 30.9895C69.2518 30.71 69.3574 30.5011 69.5524 30.3628C69.7671 30.2069 70.126 30.1436 70.6292 30.1727L88.9369 31.2608C89.496 31.2932 89.8835 31.3811 90.0996 31.5245C90.3167 31.6493 90.4156 31.8794 90.3962 32.2148C90.3735 32.6061 90.102 32.9363 89.5816 33.2054C88.9285 33.5041 88.4991 33.8158 88.2934 34.1405C88.0876 34.4651 87.962 35.0188 87.9167 35.8015L87.3211 46.0882C87.2725 46.9268 87.3312 47.5286 87.497 47.8934C87.6639 48.2397 88.0638 48.5994 88.6966 48.9726C89.1825 49.2999 89.4141 49.6592 89.3915 50.0505C89.3753 50.3301 89.2599 50.5478 89.0451 50.7036C88.8502 50.8419 88.4918 50.896 87.97 50.8657L81.9896 50.4914C81.4306 50.459 81.0424 50.3805 80.8253 50.2557C80.6092 50.1123 80.5109 49.8729 80.5303 49.5375C80.553 49.1461 80.8245 48.8159 81.3449 48.5469C81.998 48.2481 82.4274 47.9364 82.6332 47.6118C82.84 47.2685 82.9656 46.7148 83.0098 45.9508L83.5472 36.6703C83.6033 35.7013 83.6163 34.9915 83.5863 34.541C83.5563 34.0905 83.4354 33.7563 83.2237 33.5384C83.013 33.3018 82.6561 33.169 82.1529 33.1398L77.1493 32.8501C76.7021 32.8242 76.3695 32.9171 76.1515 33.1289C75.9533 33.3231 75.8133 33.6422 75.7315 34.0862C75.6694 34.5127 75.6098 35.2197 75.5526 36.2074L75.0217 45.3761C74.9731 46.2147 75.0318 46.8164 75.1976 47.1812C75.3645 47.5275 75.7551 47.8867 76.3693 48.2588C76.8552 48.5861 77.0868 48.9454 77.0641 49.3368C77.0479 49.6163 76.9325 49.834 76.7178 49.9898C76.5228 50.1281 76.1737 50.1827 75.6706 50.1536L69.6902 49.7792ZM92.4841 51.0991C91.925 51.0667 91.5369 50.9881 91.3197 50.8634C91.1037 50.72 91.0054 50.4806 91.0248 50.1451C91.0474 49.7538 91.319 49.4236 91.8394 49.1546C92.4924 48.8558 92.9125 48.5436 93.0997 48.2178C93.3065 47.8746 93.4321 47.3209 93.4763 46.5568L94.0719 36.2701C94.1173 35.4874 94.1129 34.9168 94.0589 34.5584C94.0235 34.2011 93.9081 33.9327 93.7128 33.7531C93.5373 33.556 93.2209 33.3693 92.7636 33.1933C92.2526 32.9767 92.0101 32.6448 92.036 32.1976C92.0521 31.918 92.1566 31.7278 92.3495 31.6267C92.5434 31.5071 92.9012 31.4624 93.423 31.4926C94.2244 31.539 95.0169 31.5755 95.8007 31.6022C96.5855 31.6102 97.1457 31.624 97.4811 31.6434C98.5466 31.649 99.6477 31.6847 100.784 31.7505C103.598 31.9135 105.718 32.5972 107.144 33.8016C108.59 34.9885 109.257 36.5603 109.143 38.517C109.033 40.4179 108.23 41.8485 106.735 42.809C105.259 43.752 103.18 44.1457 100.496 43.9904L98.8751 43.8965C98.4651 43.8727 98.2005 43.9229 98.0811 44.0468C97.9617 44.1708 97.8891 44.4564 97.8632 44.9037L97.7596 46.6927C97.7272 47.2517 97.749 47.683 97.8249 47.9866C97.9205 48.2726 98.0934 48.5163 98.3435 48.7178C98.5936 48.9193 99.0104 49.1491 99.5938 49.4072C100.211 49.7235 100.504 50.1518 100.473 50.6922C100.455 51.009 100.302 51.2245 100.015 51.3388C99.7277 51.4531 99.2575 51.5006 98.6042 51.4815L92.4841 51.0991ZM100.246 42.0126C101.551 42.0881 102.538 41.8274 103.208 41.2305C103.897 40.6347 104.273 39.8056 104.334 38.7434C104.419 37.2712 104.075 36.1107 103.302 35.2619C102.548 34.3956 101.509 33.9241 100.186 33.8475L99.5153 33.8086C99.1426 33.787 98.8769 33.8558 98.7181 34.0149C98.5604 34.1553 98.4686 34.4492 98.4427 34.8964L98.0866 41.0461C98.0704 41.3257 98.1232 41.5437 98.245 41.7004C98.3679 41.8384 98.6437 41.9198 99.0723 41.9446L100.246 42.0126ZM119.439 52.9964C117.501 52.8842 115.8 52.3744 114.338 51.467C112.896 50.5421 111.791 49.2908 111.022 47.713C110.273 46.1177 109.958 44.2951 110.076 42.2452C110.188 40.3258 110.697 38.6257 111.606 37.1451C112.533 35.6656 113.776 34.5409 115.335 33.771C116.895 32.9826 118.654 32.645 120.61 32.7583C122.549 32.8705 124.248 33.3896 125.709 34.3156C127.171 35.223 128.286 36.4655 129.055 38.0433C129.824 39.621 130.149 41.4255 130.032 43.4568C129.92 45.3949 129.4 47.1037 128.473 48.5833C127.564 50.0639 126.321 51.1979 124.742 51.9853C123.182 52.7737 121.414 53.1108 119.439 52.9964ZM120.346 50.8893C121.166 50.9368 121.933 50.7662 122.647 50.3775C123.362 49.9888 123.939 49.3772 124.38 48.5426C124.841 47.6905 125.108 46.6308 125.181 45.3636C125.274 43.761 125.105 42.1618 124.674 40.5662C124.244 38.952 123.592 37.6148 122.719 36.5545C121.864 35.4953 120.859 34.9323 119.703 34.8654C118.417 34.7909 117.326 35.2232 116.431 36.1624C115.535 37.1015 115.034 38.4935 114.927 40.3384C114.834 41.9411 114.993 43.549 115.405 45.1621C115.835 46.7763 116.477 48.1224 117.331 49.2002C118.204 50.2605 119.209 50.8235 120.346 50.8893ZM140.171 54.1969C138.419 54.0954 136.851 53.5652 135.467 52.6063C134.101 51.6484 133.054 50.363 132.324 48.7502C131.615 47.1198 131.318 45.2982 131.435 43.2856C131.543 41.4221 132.031 39.7675 132.9 38.322C133.789 36.859 134.957 35.7393 136.404 34.963C137.852 34.1867 139.432 33.8482 141.147 33.9474C142.47 34.024 143.713 34.3485 144.877 34.9207C146.041 35.4743 146.962 36.2007 147.639 37.1C148.335 38.0004 148.653 38.9724 148.593 40.016C148.558 40.6123 148.351 41.1145 147.972 41.5227C147.593 41.9308 147.05 42.1143 146.342 42.0733C145.801 42.042 145.326 41.8556 144.916 41.5139C144.525 41.1548 144.18 40.4897 143.881 39.5188C143.373 37.3204 142.252 36.171 140.519 36.0707C139.364 36.0038 138.393 36.4524 137.608 37.4167C136.824 38.3623 136.384 39.6644 136.288 41.3229C136.141 43.876 136.531 46.0208 137.458 47.7573C138.386 49.4938 139.866 50.4209 141.897 50.5385C143.183 50.613 144.262 50.3856 145.134 49.8565C146.026 49.3098 146.628 48.5874 146.942 47.6894C147.088 47.4361 147.328 47.3191 147.664 47.3385C147.887 47.3515 148.078 47.4467 148.236 47.6241C148.414 47.784 148.485 48.0031 148.45 48.2816C148.338 49.2474 147.937 50.2058 147.246 51.1568C146.574 52.1089 145.632 52.877 144.42 53.4613C143.209 54.0455 141.792 54.2907 140.171 54.1969ZM169.852 53.6718C170.357 54.0002 170.598 54.3507 170.577 54.7234C170.56 55.0216 170.444 55.2486 170.229 55.4044C170.034 55.5427 169.675 55.5968 169.154 55.5666L166.304 55.3735L165.913 55.3508L163.201 55.1938C162.642 55.1615 162.254 55.0829 162.037 54.9581C161.821 54.8147 161.723 54.5753 161.742 54.2399C161.765 53.8485 162.036 53.5184 162.557 53.2493C163.21 52.9506 163.639 52.6389 163.845 52.3142C164.052 51.9709 164.177 51.4173 164.221 50.6532L164.589 44.3079C164.626 43.6742 164.485 43.3483 164.169 43.3299C163.945 43.317 163.676 43.451 163.36 43.7319L157.273 49.0729C156.88 49.4054 156.601 49.7071 156.435 49.978C156.271 50.2303 156.174 50.6266 156.142 51.1671C156.118 51.577 156.193 51.9085 156.365 52.1616C156.556 52.4157 156.961 52.6823 157.581 52.9612C158.047 53.3061 158.269 53.6649 158.248 54.0376C158.228 54.373 158.112 54.6 157.9 54.7186C157.688 54.8185 157.294 54.8518 156.716 54.8183L154.005 54.6613L153.585 54.6371L150.902 54.4817C150.343 54.4493 149.955 54.3707 149.738 54.246C149.521 54.1026 149.423 53.8632 149.443 53.5277C149.465 53.1364 149.737 52.8062 150.257 52.5371C150.91 52.2384 151.33 51.9262 151.517 51.6004C151.723 51.2758 151.849 50.7221 151.894 49.9394L152.49 39.6527C152.538 38.8141 152.479 38.2217 152.312 37.8754C152.146 37.5106 151.756 37.1421 151.142 36.7699C150.656 36.4426 150.424 36.0926 150.446 35.7199C150.463 35.4218 150.569 35.2035 150.764 35.0652C150.979 34.9094 151.338 34.846 151.841 34.8752L154.718 35.0698L155.11 35.0925L157.821 35.2495C158.38 35.2819 158.768 35.3697 158.984 35.5131C159.201 35.6379 159.3 35.868 159.28 36.2034C159.258 36.5948 158.986 36.925 158.466 37.194C157.813 37.4928 157.383 37.8045 157.178 38.1291C156.972 38.4538 156.846 39.0074 156.801 39.7901L156.435 46.1075C156.407 46.592 156.496 46.8402 156.701 46.8521C156.887 46.8629 157.225 46.6675 157.716 46.2658L163.861 40.9001C164.176 40.6192 164.415 40.3619 164.578 40.1283C164.761 39.8771 164.862 39.5931 164.88 39.2763C164.904 38.8663 164.82 38.5436 164.628 38.3081C164.455 38.055 164.06 37.7797 163.442 37.4821C162.956 37.1548 162.724 36.7955 162.747 36.4041C162.766 36.0687 162.882 35.851 163.093 35.7511C163.324 35.6336 163.729 35.5916 164.306 35.625L167.018 35.782L167.409 35.8047L170.121 35.9617C170.68 35.994 171.067 36.0819 171.283 36.2253C171.5 36.3501 171.599 36.5802 171.58 36.9156C171.557 37.307 171.286 37.6372 170.765 37.9062C170.112 38.2049 169.682 38.526 169.475 38.8692C169.27 39.1939 169.145 39.7382 169.1 40.5023L168.505 50.7891C168.475 51.6287 168.533 52.2305 168.681 52.5942C168.848 52.9405 169.238 53.2997 169.852 53.6718ZM191.443 54.95C191.936 55.1468 192.17 55.4689 192.144 55.9161C192.105 56.587 191.556 56.8731 190.496 56.7743L187.505 56.6011C187.039 56.5741 186.681 56.4506 186.432 56.2305C186.183 56.0104 185.917 55.6023 185.634 55.0063L182.22 48.0774C182.017 47.7104 181.837 47.4381 181.679 47.2607C181.521 47.0833 181.293 46.9859 180.994 46.9687L180.268 46.9266C179.876 46.9039 179.612 46.9447 179.475 47.049C179.338 47.1532 179.258 47.4197 179.233 47.8483L179.027 51.3983C178.979 52.2369 179.037 52.8387 179.203 53.2035C179.37 53.5498 179.761 53.9089 180.375 54.2811C180.861 54.6084 181.093 54.9584 181.071 55.3311C181.054 55.6292 180.938 55.8563 180.723 56.0121C180.528 56.1504 180.179 56.205 179.676 56.1758L176.798 55.9812L176.379 55.9569L173.696 55.8015C173.137 55.7691 172.749 55.6906 172.531 55.5658C172.315 55.4224 172.217 55.183 172.236 54.8476C172.259 54.4562 172.531 54.126 173.051 53.857C173.704 53.5582 174.124 53.246 174.311 52.9203C174.517 52.5956 174.643 52.042 174.688 51.2593L175.284 40.9725C175.332 40.1339 175.273 39.5415 175.106 39.1953C174.94 38.8304 174.55 38.4619 173.936 38.0898C173.45 37.7625 173.218 37.4125 173.239 37.0398C173.257 36.7416 173.363 36.5234 173.558 36.3851C173.773 36.2292 174.131 36.1659 174.635 36.195L177.512 36.3897L177.932 36.4139L180.643 36.571C181.202 36.6033 181.58 36.6907 181.778 36.833C181.995 36.9577 182.094 37.1878 182.074 37.5233C182.052 37.9146 181.78 38.2448 181.26 38.5139C180.607 38.8126 180.177 39.1243 179.971 39.4489C179.784 39.7747 179.668 40.3289 179.623 41.1116L179.463 43.8789C179.441 44.2516 179.482 44.5158 179.585 44.6713C179.689 44.8083 179.9 44.8859 180.217 44.9042L181.111 44.956C181.297 44.9668 181.449 44.9382 181.565 44.8701C181.681 44.802 181.808 44.6972 181.948 44.5557C182.487 43.9512 182.986 43.4098 183.444 42.9315C184.882 41.3506 185.831 40.2931 186.292 39.7588C186.431 39.6173 186.505 39.4813 186.512 39.3509C186.521 39.2018 186.416 39.0742 186.198 38.9681C185.998 38.863 185.678 38.7416 185.237 38.6039C184.855 38.4135 184.678 38.0947 184.704 37.6475C184.737 37.0698 185.21 36.8074 186.123 36.8602L189.701 37.0674L191.49 37.171C191.807 37.1894 192.082 37.2801 192.316 37.4432C192.569 37.5887 192.686 37.8292 192.667 38.1647C192.649 38.4815 192.542 38.6997 192.349 38.8194C192.156 38.9204 191.861 39.0062 191.464 39.0767C190.789 39.1124 190.261 39.194 189.879 39.3215C189.499 39.4303 189.129 39.6894 188.769 40.0986L185.313 44.0775L185.341 44.0791C185.159 44.3116 185.062 44.5304 185.05 44.7354C185.041 44.9031 185.128 45.1699 185.313 45.5359L189.544 53.3535C189.816 53.8181 190.021 54.1478 190.16 54.3428C190.299 54.5191 190.45 54.6494 190.614 54.7337C190.797 54.8004 191.073 54.8725 191.443 54.95Z" fill="white"/>
</svg>
