<svg width="130" height="79" viewBox="0 0 130 79" fill="none" xmlns="http://www.w3.org/2000/svg">
<rect y="5.60938" width="126.907" height="73" rx="36.5" transform="rotate(-2.53321 0 5.60938)" fill="#FF6E00"/>
<path d="M42.5152 42.214C43.1679 42.1851 43.5112 42.553 43.545 43.3176C43.573 43.9516 43.3926 44.9406 43.0036 46.2844C42.7626 47.1733 42.5584 47.8363 42.3909 48.2734C42.2226 48.692 42.0578 48.9795 41.8966 49.1361C41.7353 49.2927 41.5335 49.3764 41.2911 49.3871C41.0486 49.3979 40.794 49.3437 40.5271 49.2247C40.3171 49.1219 40.0798 49.039 39.8154 48.976C39.5705 48.9307 39.2057 48.9188 38.7208 48.9403L28.315 49.4007C27.7369 49.4262 27.3335 49.388 27.1047 49.286C26.8938 49.1646 26.7809 48.936 26.7661 48.6003C26.7496 48.2274 26.9768 47.8717 27.4476 47.5332C28.0668 47.1695 28.4622 46.8156 28.6338 46.4717C28.8055 46.1278 28.874 45.5642 28.8393 44.781L28.3789 34.3752C28.3443 33.5919 28.2263 33.0366 28.025 32.7092C27.8236 32.3818 27.3985 32.0642 26.7496 31.7566C26.2313 31.4432 25.9642 31.1094 25.9486 30.755C25.9337 30.4194 26.0264 30.191 26.2266 30.0701C26.4446 29.9296 26.8426 29.8466 27.4207 29.8211L37.0153 29.3966C37.5002 29.3751 37.8533 29.3315 38.0746 29.2656C38.3137 29.1803 38.552 29.0763 38.7895 28.9537C39.0448 28.8116 39.303 28.7348 39.5641 28.7233C39.7878 28.7134 39.9776 28.7797 40.1334 28.9223C40.3079 29.0641 40.4885 29.3457 40.6753 29.7672C40.8799 30.1692 41.1508 30.8018 41.488 31.6651C42.0136 32.9872 42.2904 33.9652 42.3185 34.5993C42.3358 34.9909 42.2647 35.2837 42.1051 35.4776C41.9633 35.652 41.7246 35.7466 41.3889 35.7615C41.1278 35.773 40.8817 35.6999 40.6505 35.5419C40.4193 35.384 40.2318 35.1587 40.0881 34.8661C39.5682 33.6746 39.1772 32.8604 38.915 32.4236C38.6706 31.9673 38.3959 31.6711 38.0909 31.5351C37.7851 31.3805 37.3338 31.3164 36.7371 31.3428L33.8 31.4727C33.3337 31.4933 33.0208 31.6006 32.8613 31.7945C32.7008 31.9698 32.6343 32.3651 32.6615 32.9805L32.8446 37.1205C32.8554 37.3629 32.9005 37.5384 32.98 37.647C33.0596 37.7556 33.2112 37.8049 33.435 37.795L35.1414 37.7195C35.4211 37.7072 35.6152 37.6612 35.7238 37.5817C35.8316 37.4835 35.8805 37.3225 35.8706 37.0987C35.8665 37.0055 35.8172 36.7367 35.7229 36.2924C35.7009 36.2187 35.6866 36.1072 35.68 35.958C35.6561 35.4172 35.8772 35.1365 36.3435 35.1159C36.6791 35.101 36.9342 35.1645 37.1086 35.3062C37.2831 35.448 37.4544 35.73 37.6225 36.1523C37.7899 36.556 38.0454 37.2641 38.3892 38.2765C38.8654 39.7503 39.1126 40.6923 39.1308 41.1025C39.1432 41.3822 39.087 41.5903 38.9622 41.7266C38.8366 41.8442 38.6246 41.9097 38.3263 41.9229C38.0092 41.9369 37.7639 41.8824 37.5903 41.7592C37.4345 41.6167 37.303 41.3889 37.1957 41.076C37.0007 40.468 36.8155 40.0839 36.6402 39.9234C36.4828 39.7436 36.1896 39.6631 35.7607 39.6821L33.8026 39.7687C33.4856 39.7827 33.2659 39.8859 33.1437 40.0781C33.0392 40.2509 32.9948 40.5145 33.0105 40.8688L33.2382 46.0158C33.2605 46.5193 33.3499 46.8516 33.5065 47.0129C33.681 47.1546 34.0199 47.2144 34.5234 47.1921L38.5515 47.0139C39.0923 46.99 39.5256 46.8587 39.8514 46.6201C40.1771 46.3814 40.4501 46.005 40.6702 45.4908C40.8896 44.9579 41.1181 44.2097 41.3557 43.2463C41.5693 42.5829 41.9558 42.2388 42.5152 42.214ZM54.434 48.5815C52.681 48.659 51.0672 48.2913 49.5925 47.4784C48.1364 46.6646 46.9635 45.4926 46.0737 43.9625C45.2016 42.4128 44.7211 40.631 44.632 38.6169C44.5495 36.7521 44.8668 35.0564 45.5841 33.5299C46.3191 31.9839 47.367 30.751 48.7277 29.8313C50.0884 28.9116 51.6265 28.4138 53.3422 28.3379C54.6662 28.2793 55.9361 28.4754 57.1519 28.9261C58.3669 29.3582 59.3569 29.987 60.1222 30.8127C60.9061 31.6375 61.3211 32.5721 61.3673 33.6164C61.3937 34.2131 61.2393 34.7338 60.9039 35.1784C60.5686 35.623 60.0466 35.861 59.3379 35.8923C58.7971 35.9162 58.3053 35.7792 57.8623 35.4811C57.4372 35.1636 57.0264 34.5371 56.63 33.6017C55.9003 31.4666 54.6683 30.4374 52.934 30.5141C51.7778 30.5652 50.8583 31.1104 50.1756 32.1496C49.492 33.1702 49.1869 34.5103 49.2604 36.17C49.3734 38.7248 49.9799 40.8187 51.0798 42.4517C52.1797 44.0847 53.746 44.8562 55.7787 44.7663C57.0654 44.7094 58.1156 44.3733 58.9292 43.7581C59.7606 43.1234 60.2867 42.3433 60.5073 41.418C60.6263 41.1512 60.8536 41.0103 61.1893 40.9955C61.4131 40.9856 61.6126 41.0608 61.7879 41.2212C61.9809 41.3622 62.0743 41.5729 62.0681 41.8535C62.055 42.8257 61.7534 43.82 61.163 44.8364C60.5914 45.852 59.7325 46.7121 58.5866 47.4168C57.4406 48.1214 56.0564 48.5097 54.434 48.5815ZM69.0825 47.5971C68.3552 47.6292 67.8399 47.596 67.5366 47.4973C67.2511 47.3791 67.1009 47.1522 67.086 46.8165C67.0687 46.4249 67.3798 46.0655 68.0193 45.7382C68.5875 45.4889 68.9976 45.2558 69.2496 45.0392C69.5194 44.803 69.6943 44.5337 69.7744 44.2312C69.8544 43.9287 69.8825 43.507 69.8586 42.9662L69.3351 31.1338C69.3144 30.6676 69.2352 30.3534 69.0972 30.1914C68.977 30.0099 68.7398 29.9269 68.3855 29.9426L67.2386 29.9933C66.8656 30.0098 66.5625 30.126 66.3291 30.3419C66.1136 30.5383 65.9221 30.855 65.7546 31.2922C65.5862 31.7107 65.3642 32.3932 65.0884 33.3396C64.8367 33.9861 64.5955 34.4452 64.3646 34.717C64.1337 34.9888 63.8504 35.1321 63.5148 35.147C62.8621 35.1758 62.5184 34.7987 62.4837 34.0154C62.4573 33.4187 62.6426 32.3268 63.0395 30.7397C63.2908 29.6635 63.5457 28.8768 63.8039 28.3796C64.08 27.8629 64.3859 27.5971 64.7216 27.5822C64.8894 27.5748 65.0589 27.6047 65.23 27.6718C65.4004 27.7204 65.5139 27.7527 65.5707 27.7689C66.1408 27.9866 66.7243 28.0822 67.3211 28.0558L75.2933 27.7031C75.7781 27.6817 76.1592 27.6368 76.4364 27.5684C76.7129 27.4815 76.9787 27.3669 77.234 27.2249C77.5266 27.0811 77.7755 27.0047 77.9806 26.9956C78.3163 26.9808 78.6148 27.1825 78.8762 27.6006C79.1368 28.0002 79.4804 28.7978 79.907 29.9934C80.2069 30.8583 80.4336 31.549 80.5872 32.0654C80.7401 32.5631 80.8243 32.9891 80.84 33.3435C80.8705 34.0334 80.5687 34.3925 79.9347 34.4205C79.599 34.4354 79.2949 34.318 79.0222 34.0685C78.7683 33.8182 78.4874 33.3821 78.1796 32.7605C77.8019 31.8243 77.5107 31.1551 77.306 30.7531C77.1014 30.3511 76.8831 30.0618 76.651 29.8852C76.4182 29.69 76.1246 29.6002 75.7703 29.6159L74.5954 29.6679C74.2411 29.6835 74.0028 29.7875 73.8805 29.9798C73.7574 30.1534 73.7062 30.4733 73.7268 30.9395L74.2478 42.716C74.2734 43.2941 74.3394 43.7303 74.4458 44.0245C74.5523 44.3188 74.741 44.572 75.0119 44.7842C75.3007 44.977 75.7392 45.1725 76.3272 45.3707C76.6711 45.5423 76.9209 45.6994 77.0767 45.842C77.2503 45.9651 77.3421 46.1386 77.352 46.3623C77.3652 46.6607 77.2539 46.8899 77.018 47.0498C76.7822 47.2097 76.3286 47.3045 75.6573 47.3342L69.0825 47.5971ZM84.0168 47.0204C83.4573 47.0452 83.0633 47.0065 82.8345 46.9046C82.6236 46.7831 82.5107 46.5545 82.4959 46.2189C82.486 45.9951 82.5515 45.7866 82.6924 45.5936C82.852 45.3996 83.0323 45.2515 83.2333 45.1492C83.6718 44.9243 83.9798 44.7051 84.1572 44.4917C84.3524 44.2589 84.4774 43.917 84.5322 43.4662C84.5862 42.9966 84.5917 42.277 84.5488 41.3073L84.152 32.9727C84.1083 31.9843 84.0393 31.268 83.9449 30.8238C83.8691 30.3787 83.7241 30.0581 83.5099 29.862C83.3135 29.6465 82.987 29.4461 82.5304 29.2608C82.3203 29.1579 82.1276 29.0263 81.9524 28.8659C81.7949 28.686 81.7117 28.4935 81.7026 28.2884C81.6878 27.9527 81.7804 27.7244 81.9806 27.6034C82.1986 27.463 82.5873 27.3804 83.1468 27.3556L85.8881 27.2344L86.2518 27.2183L88.9651 27.0982C89.5432 27.0727 89.9377 27.1206 90.1486 27.2421C90.3587 27.3449 90.4712 27.5641 90.486 27.8998C90.4951 28.1049 90.4292 28.304 90.2882 28.4971C90.1465 28.6716 89.9844 28.8095 89.802 28.911C89.199 29.218 88.81 29.5061 88.6351 29.7754C88.4788 30.0439 88.4126 30.4486 88.4366 30.9894L88.548 33.5069C88.5661 33.9172 88.6344 34.1945 88.7529 34.3387C88.8892 34.4635 89.1252 34.5184 89.4609 34.5036L91.8106 34.3996C94.4587 34.2825 96.5246 34.7329 98.0084 35.751C99.4913 36.7504 100.277 38.2385 100.364 40.2152C100.452 42.2106 99.7452 43.7554 98.2428 44.8495C96.7403 45.9437 94.5625 46.5539 91.7093 46.6801L86.7581 46.8991L84.0168 47.0204ZM91.6811 44.7755C93.0051 44.7169 94.0025 44.243 94.6732 43.3538C95.3617 42.4452 95.6738 41.2636 95.6094 39.809C95.5615 38.7274 95.1689 37.8759 94.4313 37.2546C93.7117 36.6137 92.7551 36.3197 91.5616 36.3725L89.6035 36.4592C89.1746 36.4781 88.8998 36.6024 88.7791 36.832C88.6772 37.0607 88.6385 37.4548 88.6633 38.0142L88.8997 43.357C88.945 44.3827 89.3593 44.8782 90.1426 44.8435L91.6811 44.7755Z" fill="white"/>
</svg>
