<svg width="357" height="333" viewBox="0 0 357 333" fill="none" xmlns="http://www.w3.org/2000/svg">
<path d="M161.676 127.663C158.701 123.247 152.66 122.086 148.245 125.06C108.415 152.016 78.8571 134.68 65.8441 123.433C70.6775 118.461 74.6744 111.489 74.0702 104.146C73.1872 93.6893 70.9099 87.5081 67.3778 85.7886C66.4483 85.3238 65.5188 85.1844 64.4964 85.3703C66.5413 81.7917 64.8217 78.7708 61.5684 75.4711C56.2238 69.987 47.8582 68.5928 42.1418 72.1713C37.169 75.2852 34.2875 80.1186 34.1945 85.2773C30.523 80.7692 28.0598 76.4006 25.829 72.4502C24.8995 70.8236 24.063 69.2899 23.1335 67.8492C21.3675 65.0142 18.2071 63.8988 15.1862 65.1536C12.3513 66.3155 9.93453 69.5687 10.3993 74.3092C7.84315 73.5656 5.42649 74.0304 3.70691 75.564C1.1043 77.9343 0.593051 82.3494 2.40558 87.3687C5.00819 94.6188 20.0196 123.433 45.9527 132.031C46.2781 132.124 46.6034 132.217 46.9288 132.264C51.8551 137.422 61.4754 146.113 75.0926 152.201C83.5046 155.92 94.101 158.987 106.51 158.987C118.919 158.987 139.414 154.479 158.98 141.233C163.395 138.259 164.557 132.217 161.583 127.802L161.676 127.663ZM59.3376 92.9457C59.4305 94.2935 59.5235 95.4554 58.8728 96.3849C57.9433 97.7327 56.0378 99.3128 53.8535 99.3128C52.041 99.3128 50.3214 98.1509 48.8342 95.9201C47.1611 93.4569 47.1146 90.7149 48.6483 88.6235C49.5313 87.4152 50.7862 86.7181 51.9945 86.7181C53.2029 86.7181 52.5057 86.7181 52.7846 86.811C53.8535 87.1363 54.7831 87.6011 55.6661 88.0194C56.9209 88.67 58.2222 89.2742 59.6165 89.2277C59.1982 90.4825 59.2912 91.7838 59.3841 92.8992L59.3376 92.9457Z" fill="#FFD000" stroke="#171008" stroke-width="1.39425" stroke-linecap="round" stroke-linejoin="round"/>
<path d="M28.5715 101.125C19.5553 94.4793 10.6321 75.1456 10.2603 74.3091Z" fill="#FFD000"/>
<path d="M28.5715 101.125C19.5553 94.4793 10.6321 75.1456 10.2603 74.3091" stroke="#171008" stroke-width="1.39425" stroke-linecap="round" stroke-linejoin="round"/>
<path d="M39.075 92.6201C38.6103 92.1089 34.7064 87.3685 34.0093 84.394Z" fill="#FFD000"/>
<path d="M39.075 92.6201C38.6103 92.1089 34.7064 87.3685 34.0093 84.394" stroke="#171008" stroke-width="1.39425" stroke-linecap="round" stroke-linejoin="round"/>
<path d="M59.5703 89.2276C59.5703 89.2276 62.7771 87.7404 64.4967 85.3237Z" fill="#FFD000"/>
<path d="M59.5703 89.2276C59.5703 89.2276 62.7771 87.7404 64.4967 85.3237" stroke="#171008" stroke-width="1.39425" stroke-linecap="round" stroke-linejoin="round"/>
<path d="M198.019 118.646C217.585 131.892 235.339 136.4 250.49 136.4C262.898 136.4 273.541 133.379 281.907 129.614C295.477 123.573 305.144 114.835 310.071 109.677C310.396 109.63 310.768 109.537 311.047 109.444C336.98 100.893 351.991 72.0317 354.594 64.7815C356.406 59.7622 355.895 55.3471 353.292 52.9769C351.573 51.4432 349.156 50.9784 346.6 51.722C347.065 46.9816 344.648 43.7283 341.813 42.5664C338.792 41.3116 335.585 42.427 333.866 45.262C332.983 46.7492 332.1 48.2829 331.17 49.863C328.939 53.8134 326.476 58.1821 322.805 62.6902C322.712 57.5314 319.877 52.7445 314.858 49.5842C309.141 46.0056 300.776 47.4463 295.431 52.8839C292.178 56.1836 290.458 59.251 292.503 62.7831C291.527 62.6437 290.551 62.7831 289.622 63.2014C286.089 64.9674 283.859 71.1486 282.929 81.5591C282.279 88.9486 286.322 95.8734 291.155 100.846C278.142 112.093 248.63 129.428 208.755 102.473C204.34 99.452 198.298 100.66 195.324 105.075C192.349 109.491 193.511 115.532 197.926 118.507L198.019 118.646ZM297.522 66.78C298.917 66.8729 300.171 66.2223 301.473 65.5716C302.356 65.1069 303.285 64.6421 304.354 64.3633C304.587 64.2703 304.865 64.2703 305.144 64.2703C306.306 64.2703 307.561 64.9674 308.49 66.1758C310.024 68.2672 309.931 71.0092 308.305 73.4724C306.817 75.7032 305.098 76.8651 303.285 76.8651C301.101 76.8651 299.242 75.2849 298.266 73.9371C297.615 72.9612 297.708 71.7993 297.801 70.498C297.894 69.3826 297.987 68.0813 297.569 66.8264L297.522 66.78Z" fill="#FFD000" stroke="#171008" stroke-width="1.39425" stroke-linecap="round" stroke-linejoin="round"/>
<path d="M328.521 78.6777C337.538 72.0318 346.461 52.6981 346.833 51.8616Z" fill="#FFD000"/>
<path d="M328.521 78.6777C337.538 72.0318 346.461 52.6981 346.833 51.8616" stroke="#171008" stroke-width="1.39425" stroke-linecap="round" stroke-linejoin="round"/>
<path d="M318.019 70.2193C318.483 69.708 322.387 64.9676 323.084 61.9932Z" fill="#FFD000"/>
<path d="M318.019 70.2193C318.483 69.708 322.387 64.9676 323.084 61.9932" stroke="#171008" stroke-width="1.39425" stroke-linecap="round" stroke-linejoin="round"/>
<path d="M297.523 66.7801C297.523 66.7801 294.316 65.2929 292.597 62.8762Z" fill="#FFD000"/>
<path d="M297.523 66.7801C297.523 66.7801 294.316 65.2929 292.597 62.8762" stroke="#171008" stroke-width="1.39425" stroke-linecap="round" stroke-linejoin="round"/>
<path d="M161.49 258.164C150.011 260.488 139.739 263.044 132.722 266.623C131.699 267.134 130.63 267.46 129.561 267.552C126.029 267.924 122.451 266.112 120.778 262.766C118.547 258.397 120.266 253.052 124.635 250.821C133.14 246.453 144.201 243.618 156.331 241.108C156.703 245.43 157.818 252.355 161.49 258.164Z" fill="#FF6E00" stroke="#171008" stroke-width="1.39425" stroke-linecap="round" stroke-linejoin="round"/>
<path d="M179.011 254.725C177.152 255.097 175.247 255.469 173.388 255.794C171.947 256.073 170.46 256.352 169.019 256.631C166.091 253.099 163.21 247.661 162.513 239.807C164.976 239.342 167.486 238.831 170.042 238.366C171.622 238.087 173.202 237.762 174.782 237.437C174.503 241.712 175.061 248.079 179.011 254.679V254.725Z" fill="#FF6E00" stroke="#171008" stroke-width="1.39425" stroke-linecap="round" stroke-linejoin="round"/>
<path d="M247.515 218.289C240.265 239.9 214.239 247.615 186.401 253.285C183.752 249.241 181.381 243.664 180.87 236.275C203.736 231.674 226.276 225.678 230.691 212.619C231.621 209.877 231.9 209.087 220.095 201.186C213.821 196.957 206.013 191.751 197.926 183.897C194.394 180.505 194.348 174.881 197.741 171.349C201.18 167.817 206.803 167.77 210.289 171.163C217.214 177.902 223.999 182.41 229.948 186.453C240.73 193.703 252.953 201.883 247.469 218.289H247.515Z" fill="#FFD000" stroke="#171008" stroke-width="1.39425" stroke-linecap="round" stroke-linejoin="round"/>
<path d="M133.744 268.528L136.301 266.158C139.74 262.951 145.27 263.602 147.873 267.552C149.778 270.434 149.499 274.198 147.269 276.754L142.807 281.867C151.358 300.085 159.445 320.162 141.692 330.433L103.071 263.416L125.379 250.542C125.332 259.791 133.744 268.482 133.744 268.482V268.528Z" fill="#FF6E00" stroke="#171008" stroke-width="1.39425" stroke-linecap="round" stroke-linejoin="round"/>
<path d="M135.985 329.431L101.466 269.4C100.354 267.466 101.022 264.991 102.956 263.879L104.164 263.184L142.715 330.225L141.506 330.92C139.572 332.033 137.097 331.365 135.985 329.431Z" fill="#FFF6EA" stroke="#171008" stroke-width="1.39425" stroke-linecap="round" stroke-linejoin="round"/>
<path d="M149.872 299.62C149.872 299.62 145.596 295.577 139.787 298.598" stroke="#171008" stroke-width="1.39425" stroke-linecap="round" stroke-linejoin="round"/>
<path d="M146.804 291.208C146.804 291.208 142.528 287.165 136.719 290.186" stroke="#171008" stroke-width="1.39425" stroke-linecap="round" stroke-linejoin="round"/>
<path d="M143.132 282.517C143.132 282.517 138.857 278.474 133.047 281.495" stroke="#171008" stroke-width="1.39425" stroke-linecap="round" stroke-linejoin="round"/>
<path d="M169.019 256.677C166.463 257.188 163.953 257.653 161.49 258.164C157.818 252.355 156.656 245.43 156.331 241.108C158.376 240.69 160.421 240.272 162.512 239.853C163.163 247.708 166.091 253.099 169.019 256.677Z" fill="#FFF6EA" stroke="#171008" stroke-width="1.39425" stroke-miterlimit="10"/>
<path d="M186.401 253.285C183.938 253.796 181.474 254.261 178.965 254.772C174.968 248.172 174.457 241.805 174.736 237.53C176.781 237.158 178.825 236.74 180.87 236.321C181.428 243.711 183.798 249.288 186.401 253.331V253.285Z" fill="#FFF6EA" stroke="#171008" stroke-width="1.39425" stroke-miterlimit="10"/>
<path d="M202.435 256.12C213.914 258.443 224.185 260.999 231.203 264.578C232.225 265.089 233.294 265.415 234.363 265.508C237.895 265.879 241.474 264.067 243.147 260.721C245.378 256.352 243.658 251.007 239.289 248.777C230.784 244.408 219.723 241.573 207.593 239.063C207.222 243.385 206.106 250.31 202.435 256.12Z" fill="#FF6E00" stroke="#171008" stroke-width="1.39425" stroke-linecap="round" stroke-linejoin="round"/>
<path d="M184.914 252.681C186.773 253.052 188.678 253.424 190.537 253.75C191.978 254.028 193.465 254.307 194.906 254.586C197.834 251.054 200.715 245.616 201.412 237.762C198.949 237.297 196.439 236.786 193.883 236.321C192.303 236.042 190.723 235.717 189.143 235.392C189.422 239.668 188.864 246.035 184.914 252.634V252.681Z" fill="#FF6E00" stroke="#171008" stroke-width="1.39425" stroke-linecap="round" stroke-linejoin="round"/>
<path d="M116.409 216.197C123.66 237.808 149.686 245.523 177.524 251.193C180.173 247.15 182.543 241.573 183.055 234.183C160.189 229.582 137.649 223.587 133.233 210.528C132.304 207.785 132.025 206.995 143.83 199.095C150.104 194.865 157.912 189.66 165.998 181.806C169.53 178.413 169.577 172.79 166.184 169.258C162.745 165.725 157.122 165.679 153.636 169.072C146.711 175.811 139.926 180.319 133.977 184.362C123.195 191.612 110.972 199.792 116.456 216.197H116.409Z" fill="#FFD000" stroke="#171008" stroke-width="1.39425" stroke-linecap="round" stroke-linejoin="round"/>
<path d="M230.18 266.483L227.624 264.113C224.185 260.906 218.654 261.557 216.052 265.507C214.146 268.389 214.425 272.153 216.656 274.71L221.118 279.822C212.566 298.04 204.48 318.117 222.233 328.388L260.854 261.371L238.546 248.498C238.592 257.746 230.18 266.437 230.18 266.437V266.483Z" fill="#FF6E00" stroke="#171008" stroke-width="1.39425" stroke-linecap="round" stroke-linejoin="round"/>
<path d="M221.423 327.546L259.974 260.505L261.182 261.2C263.116 262.312 263.784 264.787 262.672 266.72L228.153 326.751C227.041 328.685 224.566 329.353 222.632 328.241L221.423 327.546Z" fill="#FFF6EA" stroke="#171008" stroke-width="1.39425" stroke-linecap="round" stroke-linejoin="round"/>
<path d="M214.054 297.575C214.054 297.575 218.33 293.532 224.139 296.553" stroke="#171008" stroke-width="1.39425" stroke-linecap="round" stroke-linejoin="round"/>
<path d="M217.075 289.163C217.075 289.163 221.351 285.12 227.16 288.141" stroke="#171008" stroke-width="1.39425" stroke-linecap="round" stroke-linejoin="round"/>
<path d="M220.746 280.426C220.746 280.426 225.022 276.383 230.831 279.404" stroke="#171008" stroke-width="1.39425" stroke-linecap="round" stroke-linejoin="round"/>
<path d="M194.906 254.632C197.462 255.144 199.972 255.608 202.435 256.12C206.106 250.31 207.268 243.385 207.593 239.063C205.549 238.645 203.504 238.227 201.412 237.808C200.762 245.663 197.834 251.054 194.906 254.632Z" fill="#FFF6EA" stroke="#171008" stroke-width="1.39425" stroke-miterlimit="10"/>
<path d="M177.478 251.24C179.941 251.751 182.404 252.216 184.914 252.727C188.91 246.128 189.422 239.76 189.143 235.485C187.098 235.113 185.053 234.695 183.008 234.276C182.45 241.666 180.08 247.243 177.478 251.286V251.24Z" fill="#FFF6EA" stroke="#171008" stroke-width="1.39425" stroke-miterlimit="10"/>
<path d="M268.755 142.86C268.29 146.578 278.654 152.201 277.817 155.78C276.934 159.405 265.129 159.591 263.828 163.03C262.527 166.516 271.218 174.463 269.498 177.763C267.779 181.062 256.253 178.413 254.161 181.434C252.07 184.455 258.576 194.308 256.16 197.05C253.697 199.838 243.147 194.494 240.405 196.957C237.663 199.42 241.659 210.527 238.592 212.619C235.571 214.71 226.602 207.042 223.302 208.761C220.049 210.481 221.257 222.239 217.818 223.54C214.379 224.842 207.5 215.268 203.922 216.151C200.343 217.034 198.717 228.746 195.045 229.164C191.42 229.582 187.051 218.614 183.287 218.614C179.522 218.614 175.2 229.582 171.529 229.164C167.811 228.699 166.184 217.034 162.652 216.151C159.027 215.268 152.148 224.888 148.756 223.54C145.27 222.239 146.525 210.481 143.272 208.761C139.972 207.042 131.002 214.71 127.981 212.619C124.96 210.527 128.957 199.42 126.169 196.957C123.38 194.494 112.877 199.792 110.414 197.05C107.951 194.308 114.504 184.455 112.412 181.434C110.321 178.413 98.795 181.062 97.0754 177.763C95.3558 174.509 104.047 166.516 102.745 163.03C101.444 159.591 89.6394 159.405 88.7564 155.78C87.8734 152.201 98.2373 146.578 97.8191 142.86C97.7261 141.977 96.936 141.14 95.8206 140.257C92.4279 137.701 85.9214 135.284 85.9214 132.449C85.9214 129.614 97.3543 125.664 97.7725 122.039C97.8655 121.342 97.5402 120.552 96.9825 119.762C94.6587 116.276 88.0128 112.047 88.7099 109.165C89.5929 105.54 101.398 105.354 102.699 101.915C104 98.4295 95.3094 90.4823 97.029 87.1825C98.7486 83.8828 110.274 86.5319 112.366 83.511C114.457 80.4436 107.951 70.6374 110.367 67.8489C112.831 65.0604 123.38 70.405 126.122 67.9418C128.911 65.4786 124.868 54.3711 127.935 52.2797C130.956 50.1883 139.925 57.8567 143.225 56.1371C146.478 54.4176 145.27 42.7058 148.709 41.3581C152.148 40.0568 159.027 49.6771 162.605 48.7476C166.184 47.8646 167.811 36.1993 171.482 35.7346C175.107 35.3163 179.476 46.2844 183.24 46.2844C187.005 46.2844 191.327 35.3163 194.998 35.7346C198.716 36.1993 200.343 47.8646 203.875 48.7476C207.5 49.6306 214.379 40.0568 217.771 41.3581C221.257 42.6594 220.002 54.4176 223.255 56.1371C226.555 57.8567 235.525 50.1883 238.546 52.2797C241.567 54.3711 237.57 65.4786 240.358 67.9418C243.147 70.405 253.65 65.1068 256.113 67.8489C258.576 70.5909 252.024 80.4436 254.115 83.511C256.206 86.5319 267.732 83.8828 269.452 87.1825C271.171 90.4358 262.48 98.4295 263.782 101.915C265.083 105.354 276.888 105.54 277.771 109.165C278.654 112.697 268.29 118.367 268.708 122.085C269.126 125.71 280.559 128.731 280.559 132.496C280.559 136.26 269.126 139.281 268.708 142.906L268.755 142.86Z" fill="#FF6E00" stroke="#171008" stroke-width="1.39425" stroke-miterlimit="10"/>
<path d="M235.665 44.5185C210.429 38.5232 205.921 35.6417 205.921 35.6417C205.921 35.6417 201.273 17.7488 192.954 5.99061C190.166 2.04022 173.899 -2.14254 148.385 4.45693C122.823 11.0564 110.647 22.5822 110.136 27.4156C108.555 41.73 113.11 59.6229 113.11 59.6229C113.11 59.6229 110.554 64.3169 91.3596 81.7915C89.9188 83.0928 89.6866 84.9983 90.7555 86.3926C99.7717 98.0113 133.28 100.01 170.553 90.3894C207.873 80.7691 236.176 62.7832 238.453 48.2365C238.732 46.5169 237.57 44.9832 235.711 44.5185H235.665Z" fill="#FFD000" stroke="#171008" stroke-width="1.39425" stroke-linecap="round" stroke-linejoin="round"/>
<path d="M110.089 27.4158C110.089 27.4158 155.913 33.7828 192.907 5.99072" stroke="#171008" stroke-width="1.39425" stroke-miterlimit="10"/>
<path d="M113.063 59.6228C113.063 59.6228 165.533 70.9627 205.874 35.6416" stroke="#171008" stroke-width="1.39425" stroke-miterlimit="10"/>
<path d="M197.043 136.771C192.07 143.092 185.657 147.275 178.314 148.344C171.157 149.366 164.092 147.368 157.632 142.953" stroke="#171008" stroke-width="1.39425" stroke-linecap="round" stroke-linejoin="round"/>
<path d="M203.039 139.328C200.622 139.049 198.531 138.073 197.136 136.353C195.742 134.634 195.138 132.542 195.231 130.219" stroke="#171008" stroke-width="1.39425" stroke-linecap="round" stroke-linejoin="round"/>
<path d="M155.588 136.493C157.075 138.398 157.865 140.536 157.679 142.767C157.493 144.951 156.378 146.857 154.658 148.437" stroke="#171008" stroke-width="1.39425" stroke-linecap="round" stroke-linejoin="round"/>
<path d="M175.386 97.8253C175.386 112.326 167.904 124.037 158.702 124.037C149.5 124.037 147.455 119.111 144.527 111.628C142.947 107.632 142.017 102.891 142.017 97.7789C142.017 92.6666 142.017 96.524 142.064 95.9199C142.203 93.0849 142.621 90.3428 143.272 87.8332C144.109 84.6264 145.363 81.7449 146.897 79.2818C149.918 74.5413 154.101 71.5669 158.748 71.5669C166.602 71.5669 173.202 80.1183 174.968 91.5977C175.293 93.5961 175.433 95.641 175.433 97.7789L175.386 97.8253Z" fill="#FFF6EA" stroke="#171008" stroke-width="1.39425" stroke-miterlimit="10"/>
<path d="M139.321 75.0991L155.681 65.4788" stroke="#171008" stroke-width="1.39425" stroke-linecap="round" stroke-linejoin="round"/>
<path d="M183.24 60.1343L201.505 66.8267" stroke="#171008" stroke-width="1.39425" stroke-linecap="round" stroke-linejoin="round"/>
<path d="M217.4 136.4C224.228 136.4 229.762 130.865 229.762 124.037C229.762 117.21 224.228 111.675 217.4 111.675C210.572 111.675 205.038 117.21 205.038 124.037C205.038 130.865 210.572 136.4 217.4 136.4Z" fill="#FFD000" stroke="#171008" stroke-width="1.39425" stroke-linecap="round" stroke-linejoin="round"/>
<path d="M129.701 144.812C136.529 144.812 142.064 139.277 142.064 132.449C142.064 125.622 136.529 120.087 129.701 120.087C122.874 120.087 117.339 125.622 117.339 132.449C117.339 139.277 122.874 144.812 129.701 144.812Z" fill="#FFD000" stroke="#171008" stroke-width="1.39425" stroke-linecap="round" stroke-linejoin="round"/>
<path d="M172.551 31.2731C172.226 31.3196 171.993 31.4125 171.761 31.552C171.9 31.4125 172.04 31.2731 172.179 31.0872C172.551 30.5295 172.69 29.9253 172.458 29.7859C172.226 29.6465 171.715 29.9718 171.343 30.5295C171.203 30.7154 171.11 30.9013 171.064 31.0872C171.064 30.8548 171.064 30.576 171.064 30.2507C170.924 29.6 170.599 29.0888 170.32 29.1353C170.041 29.1817 169.948 29.7859 170.041 30.4366C170.041 30.5295 170.088 30.6689 170.134 30.7619C168.368 30.0648 166.323 30.576 165.162 32.1561C163.07 34.9911 159.956 37.036 156.192 37.7796C152.474 38.5232 148.802 37.7796 145.781 35.9206C144.108 34.8982 142.017 35.2235 140.623 36.5248C140.623 36.4319 140.623 36.3389 140.623 36.1995C140.483 35.5488 140.158 35.0376 139.879 35.0841C139.6 35.1306 139.507 35.7347 139.6 36.3854C139.647 36.7107 139.74 36.9431 139.879 37.1755C139.74 37.036 139.6 36.8966 139.414 36.7572C138.857 36.3854 138.252 36.246 138.113 36.4783C137.974 36.7107 138.299 37.2219 138.857 37.5937C139.043 37.7332 139.228 37.8261 139.414 37.8726C139.182 37.8726 138.903 37.8726 138.578 37.8726C137.927 38.012 137.416 38.3373 137.462 38.6162C137.509 38.895 138.113 38.988 138.764 38.895C138.996 38.8486 139.228 38.7556 139.414 38.6627C139.043 40.3822 139.786 42.2412 141.366 43.2172C146.107 46.0987 151.916 47.2605 157.772 46.0987C163.628 44.9368 168.554 41.6835 171.9 37.2219C173.016 35.7347 173.016 33.7363 171.993 32.2491C172.179 32.2491 172.412 32.2491 172.69 32.2026C173.341 32.0632 173.852 31.7379 173.806 31.459C173.759 31.1802 173.155 31.0872 172.505 31.1802L172.551 31.2731Z" fill="#FF6E00" stroke="#171008" stroke-width="1.39425" stroke-linecap="round" stroke-linejoin="round"/>
<path d="M158.004 104.843C161.88 104.843 165.022 101.701 165.022 97.8254C165.022 93.9496 161.88 90.8076 158.004 90.8076C154.128 90.8076 150.986 93.9496 150.986 97.8254C150.986 101.701 154.128 104.843 158.004 104.843Z" fill="#171008"/>
<path d="M205.037 94.0145C205.037 108.515 197.555 120.227 188.353 120.227C179.151 120.227 177.106 115.3 174.178 107.818C172.598 103.821 171.668 99.0803 171.668 93.9681C171.668 88.8558 171.668 92.7132 171.714 92.1091C171.854 89.2741 172.272 86.5321 172.923 84.0224C173.759 80.8156 175.014 77.9342 176.548 75.471C179.569 70.7305 183.751 67.7561 188.399 67.7561C196.253 67.7561 202.853 76.3075 204.619 87.7869C204.944 89.7853 205.084 91.8302 205.084 93.9681L205.037 94.0145Z" fill="#FFF6EA" stroke="#171008" stroke-width="1.39425" stroke-miterlimit="10"/>
<path d="M187.655 101.079C191.531 101.079 194.673 97.9367 194.673 94.061C194.673 90.1852 191.531 87.0432 187.655 87.0432C183.78 87.0432 180.638 90.1852 180.638 94.061C180.638 97.9367 183.78 101.079 187.655 101.079Z" fill="#171008"/>
<path d="M174.921 91.6441L142.063 95.9199C142.203 93.0849 142.621 90.3428 143.272 87.8332C144.108 84.6264 145.363 81.7449 146.897 79.2818C149.918 74.5413 154.1 71.5669 158.748 71.5669C166.602 71.5669 173.202 80.1183 174.968 91.5977L174.921 91.6441Z" fill="#FF6E00" stroke="#171008" stroke-width="1.39425" stroke-miterlimit="10"/>
<path d="M204.573 87.8334L171.715 92.1091C171.854 89.2741 172.272 86.5321 172.923 84.0224C173.76 80.8156 175.015 77.9342 176.548 75.471C179.569 70.7305 183.752 67.7561 188.399 67.7561C196.254 67.7561 202.853 76.3075 204.619 87.7869L204.573 87.8334Z" fill="#FF6E00" stroke="#171008" stroke-width="1.39425" stroke-miterlimit="10"/>
</svg>
