<svg width="259" height="288" viewBox="0 0 259 288" fill="none" xmlns="http://www.w3.org/2000/svg">
<path d="M160.502 83.3037C162.837 79.9221 167.466 79.0365 170.888 81.3714C188.441 93.3681 202.853 97.5548 212.595 93.4486C224.39 88.4567 227.329 72.394 227.329 72.233C227.41 71.6694 227.571 71.146 227.772 70.6629C226.403 69.1332 225.155 67.2411 224.471 64.9061C221.975 56.8144 221.411 47.9981 217.708 41.0335C213.843 33.7872 208.891 24.0852 214.89 21.7503C220.888 19.4153 229.1 28.272 231.798 36.4039C233.368 31.9354 241.298 29.7615 245.123 35.3573C249.31 33.9483 254.02 35.1157 256.516 43.2074C258.891 50.7758 252.772 54.6003 252.772 54.6003C252.772 54.6003 259.616 62.0076 257.643 67.8047C255.831 73.1186 248.947 78.1508 241.379 77.6275C239.648 84.3504 233.972 100.534 218.473 107.136C218.07 107.297 217.667 107.458 217.265 107.619C202.571 113.215 184.133 108.545 162.434 93.6499C159.012 91.315 158.167 86.6854 160.502 83.2635V83.3037Z" fill="#FFD000" stroke="#171008" stroke-width="1.20772" stroke-linecap="round" stroke-linejoin="round"/>
<path d="M236.387 63.4166C236.387 63.4166 244.962 53.4328 246.733 50.655C248.786 47.3539 249.471 40.5504 242.627 39.5037C238.682 38.8999 231.355 46.9513 230.308 48.1188C225.84 53.0704 228.618 62.4504 228.738 62.853" stroke="#171008" stroke-width="1.20772" stroke-linecap="round" stroke-linejoin="round"/>
<path d="M246.734 68.6099C247.337 67.1204 248.505 62.8531 242.99 56.1704" stroke="#171008" stroke-width="1.20772" stroke-linecap="round" stroke-linejoin="round"/>
<path d="M233.086 45.1802C233.247 41.1142 231.798 36.4443 231.798 36.4041" stroke="#171008" stroke-width="1.20772" stroke-linecap="round" stroke-linejoin="round"/>
<path d="M245.525 55.6469C254.1 45.6228 245.123 35.3572 245.123 35.3572" stroke="#171008" stroke-width="1.20772" stroke-linecap="round" stroke-linejoin="round"/>
<path d="M252.772 54.6405C252.732 54.6405 247.015 58.8676 244.117 54.1172" stroke="#171008" stroke-width="1.20772" stroke-linecap="round" stroke-linejoin="round"/>
<path d="M56.8797 262.248C56.8394 262.529 56.7992 262.852 56.8394 263.174C56.8394 263.496 56.9602 263.777 57.0809 264.1C57.242 264.422 57.4433 264.663 57.6848 264.945C57.9263 265.186 58.2887 265.428 58.6912 265.629C59.0938 265.831 59.5769 265.992 60.1405 266.072C61.0664 266.233 61.8716 266.233 62.5157 266.072C63.1598 265.871 63.6429 265.589 63.9649 265.146C64.287 264.744 64.5285 264.261 64.609 263.777C64.6896 263.294 64.6896 263.013 64.609 262.65C64.5285 262.248 64.4078 261.885 64.126 261.563C63.8844 261.201 63.5221 260.919 63.0391 260.637C62.556 260.356 61.9923 260.154 61.2677 260.034C60.5431 259.913 59.9392 259.873 59.3756 259.953C58.8522 260.034 58.4094 260.195 58.0874 260.436C57.7251 260.678 57.4835 260.959 57.2822 261.282C57.0809 261.604 56.9602 261.926 56.8797 262.288V262.248Z" fill="#171008"/>
<path d="M153.054 276.176C153.054 276.458 153.094 276.7 153.175 276.941C153.255 277.183 153.376 277.424 153.577 277.666C153.739 277.908 153.98 278.069 154.262 278.23C154.544 278.391 154.866 278.511 155.228 278.592C155.59 278.672 156.033 278.713 156.516 278.672C157.321 278.672 158.006 278.471 158.489 278.189C158.972 277.908 159.334 277.545 159.536 277.143C159.737 276.74 159.817 276.297 159.817 275.895C159.817 275.492 159.737 275.251 159.616 274.969C159.495 274.647 159.294 274.405 159.012 274.164C158.73 273.922 158.368 273.721 157.925 273.6C157.482 273.479 156.959 273.399 156.315 273.439C155.671 273.479 155.188 273.56 154.745 273.761C154.342 273.922 153.98 274.164 153.739 274.405C153.497 274.687 153.336 274.969 153.215 275.251C153.094 275.573 153.054 275.854 153.094 276.176H153.054Z" fill="#171008"/>
<path d="M1.0827 244.373C1.16321 241.998 1.12294 238.375 1.16319 237.972C1.40474 234.873 4.42403 232.055 10.0601 229.599C24.9553 223.117 37.6766 225.935 48.4253 228.391C77.4911 235.034 105.51 241.153 193.07 233.504C208.931 232.135 221.009 231.571 227.329 236.322C231.798 239.703 230.63 251.579 230.63 251.579C230.429 259.309 224.954 263.777 212.273 266.515C206.073 267.843 197.78 268.85 186.548 269.534C185.743 269.977 178.698 272.714 178.014 272.795C177.651 274.405 176.967 275.855 176.001 276.941C173.263 280.001 167.627 283.101 164.809 284.51C164.366 284.792 163.883 285.073 163.36 285.315C162.474 285.718 161.508 286.04 160.421 286.281C159.334 286.523 158.127 286.684 156.838 286.724C155.027 286.805 153.376 286.724 151.927 286.362C150.478 286.04 149.23 285.557 148.143 284.912C147.056 284.268 146.17 283.463 145.486 282.577C144.801 281.692 144.238 280.685 143.916 279.598C143.553 278.552 143.352 277.425 143.312 276.297C143.231 274.204 143.634 272.312 144.479 270.661C126.967 270.782 110.22 270.42 94.7213 269.534C94.1174 269.856 87.475 272.433 86.7906 272.513C86.4283 274.123 85.7439 275.613 84.7777 276.7C82.0402 279.759 76.4042 282.859 73.5862 284.268C73.1433 284.55 72.6603 284.832 72.1369 285.073C71.2513 285.476 70.2851 285.798 69.1981 286.04C68.1112 286.281 66.9034 286.442 65.6152 286.482C63.8036 286.563 62.1531 286.482 60.7038 286.12C59.2546 285.798 58.0066 285.315 56.9196 284.671C55.8327 284.027 54.947 283.222 54.2627 282.336C53.5783 281.45 53.0147 280.444 52.6926 279.357C52.3303 278.31 52.129 277.183 52.0887 276.056C52.0082 273.962 52.4108 272.03 53.2965 270.339C54.2224 268.648 55.6314 267.28 57.5235 266.233C57.604 266.233 57.6443 266.153 57.7248 266.153C33.6509 262.972 16.0584 258.182 6.83947 252.304C2.89425 249.768 0.921641 247.111 1.00216 244.333L1.0827 244.373Z" fill="#FFD000" stroke="#171008" stroke-width="1.20772" stroke-linecap="round" stroke-linejoin="round"/>
<path d="M147.499 272.271C147.62 272.07 147.74 271.869 147.861 271.708C154.101 271.668 159.737 271.547 164.89 271.426C164.89 271.426 164.89 271.466 164.93 271.507C165.293 272.07 165.615 272.714 165.816 273.399C166.017 274.083 166.138 274.848 166.178 275.613C166.178 276.217 166.178 276.821 166.098 277.424C166.017 277.988 165.856 278.552 165.655 279.115C165.454 279.639 165.172 280.162 164.809 280.645C164.487 281.128 164.045 281.571 163.561 281.973C163.078 282.376 162.515 282.738 161.83 283.02C161.146 283.342 160.421 283.584 159.576 283.785C158.731 283.986 157.764 284.107 156.758 284.147C155.309 284.228 154.02 284.147 152.934 283.866C151.847 283.624 150.921 283.262 150.116 282.779C149.351 282.296 148.707 281.732 148.183 281.088C147.7 280.444 147.298 279.719 147.056 278.954C146.814 278.189 146.653 277.344 146.613 276.498C146.533 274.928 146.855 273.519 147.499 272.312V272.271Z" fill="#FF6E00" stroke="#171008" stroke-width="1.20772" stroke-linecap="round" stroke-linejoin="round"/>
<path d="M153.175 276.941C153.255 277.183 153.376 277.424 153.577 277.666C153.738 277.908 153.98 278.069 154.262 278.23C154.543 278.391 154.865 278.511 155.228 278.592C155.59 278.672 156.033 278.713 156.516 278.672C157.321 278.672 158.006 278.471 158.489 278.189C158.972 277.908 159.334 277.545 159.495 277.143C159.696 276.74 159.777 276.297 159.777 275.895C159.777 275.573 159.696 275.251 159.576 274.969C159.455 274.647 159.254 274.405 158.972 274.164C158.69 273.922 158.328 273.721 157.885 273.6C157.442 273.479 156.919 273.399 156.274 273.439C155.671 273.439 155.147 273.56 154.704 273.761C154.302 273.962 153.94 274.164 153.698 274.445C153.456 274.727 153.295 275.009 153.175 275.291C153.054 275.613 153.014 275.895 153.054 276.217C153.054 276.499 153.134 276.74 153.175 276.982V276.941Z" fill="#171008" stroke="#171008" stroke-width="1.20772" stroke-linecap="round" stroke-linejoin="round"/>
<path d="M57.081 269.172C57.2018 269.011 57.3628 268.85 57.5239 268.688C63.643 269.775 69.2388 270.742 74.3112 271.547C74.3112 271.547 74.3112 271.587 74.3112 271.627C74.593 272.271 74.754 272.956 74.8345 273.64C74.915 274.365 74.915 275.13 74.7943 275.895C74.6735 276.659 74.5527 277.062 74.3917 277.626C74.1904 278.189 73.9488 278.713 73.6268 279.196C73.3047 279.679 72.9424 280.122 72.4996 280.524C72.0568 280.927 71.5737 281.289 71.0101 281.611C70.4465 281.933 69.8426 282.175 69.118 282.336C68.3934 282.497 67.6285 282.618 66.7428 282.658C65.8571 282.658 64.9312 282.658 63.8845 282.497C62.8378 282.336 61.1873 281.973 60.1808 281.531C59.1744 281.088 58.2888 280.564 57.6044 279.961C56.92 279.357 56.3967 278.672 56.0343 277.948C55.672 277.223 55.4305 276.418 55.3097 275.653C55.1889 274.848 55.1889 274.002 55.3097 273.157C55.511 271.627 56.0746 270.299 56.9602 269.212L57.081 269.172Z" fill="#FF6E00" stroke="#171008" stroke-width="1.20772" stroke-linecap="round" stroke-linejoin="round"/>
<path d="M61.8309 274.808C61.8309 275.09 61.9516 275.331 62.0724 275.573C62.1932 275.814 62.3945 276.056 62.636 276.257C62.8775 276.458 63.1593 276.66 63.5216 276.78C63.884 276.941 64.2865 277.022 64.7696 277.102C65.5748 277.223 66.2591 277.183 66.7825 276.982C67.3058 276.78 67.7084 276.499 67.9902 276.136C68.272 275.774 68.4331 275.371 68.4733 274.969C68.5136 274.647 68.4733 274.325 68.4733 274.003C68.3928 273.681 68.272 273.359 68.0304 273.077C67.7889 272.795 67.5071 272.553 67.0643 272.312C66.6617 272.111 66.1384 271.949 65.5345 271.869C64.9307 271.788 64.3671 271.788 63.9242 271.869C63.4814 271.949 63.1191 272.111 62.8373 272.352C62.5555 272.553 62.3542 272.835 62.1931 273.077C62.0321 273.359 61.9516 273.64 61.8711 273.962C61.8711 274.204 61.8711 274.486 61.8711 274.727L61.8309 274.808Z" fill="#171008" stroke="#171008" stroke-width="1.20772" stroke-linecap="round" stroke-linejoin="round"/>
<path d="M9.13419 248.6C27.4915 260.396 79.9066 267.32 145.929 266.756C210.501 266.193 228.255 262.408 228.617 249.164V249.003C226.202 253.109 220.888 255.846 212.112 257.779C204.624 259.389 194.117 260.516 178.94 261.16C169.761 261.563 158.932 261.805 146.009 261.925C113.803 262.207 84.0933 260.718 60.1402 257.577C35.5832 254.357 17.6687 249.526 8.36929 243.528C6.47719 242.32 5.06819 241.112 4.10202 239.864C4.10202 240.508 4.10199 241.193 4.02147 241.998C3.94096 244.132 5.71232 246.426 9.09394 248.6H9.13419Z" fill="#FF6E00" stroke="#171008" stroke-width="1.20772" stroke-linecap="round" stroke-linejoin="round"/>
<path d="M76.8071 171.025L73.6268 169.213C68.7154 173.521 66.9441 179.962 66.5013 181.975L69.6816 183.786C70.1244 181.773 71.8957 175.332 76.8071 171.025Z" fill="#FFF6EA" stroke="#171008" stroke-width="1.20772" stroke-linecap="round" stroke-linejoin="round"/>
<path d="M81.7993 173.843L76.8074 171.025C71.896 175.332 70.1247 181.774 69.6819 183.786L74.6737 186.604C75.1166 184.592 76.8879 178.15 81.7993 173.843Z" fill="#FF6E00" stroke="#171008" stroke-width="1.20772" stroke-linecap="round" stroke-linejoin="round"/>
<path d="M73.6265 169.253L50.5187 156.25L43.353 168.971L66.4607 181.974C66.9035 179.962 68.6748 173.52 73.5862 169.213L73.6265 169.253Z" fill="#FF6E00" stroke="#171008" stroke-width="1.20772" stroke-linecap="round" stroke-linejoin="round"/>
<path d="M42.8299 153.835L24.6738 188.859L58.9328 212.53C59.4562 211.604 59.9393 210.678 60.4224 209.833L30.0683 188.376L46.8556 154.117L42.8299 153.875V153.835Z" fill="#FFF6EA" stroke="#171008" stroke-width="1.20772" stroke-linecap="round" stroke-linejoin="round"/>
<path d="M46.8557 154.076L30.0684 188.335L60.4224 209.792C70.2855 195.863 57.4031 187.973 57.4031 187.973L55.2694 175.654L59.2147 177.868C60.3419 177.546 63.6832 172.232 60.5432 169.495L57.8862 167.723C57.8862 167.723 55.3097 165.912 58.6913 160.839L46.8557 154.076Z" fill="#FF6E00" stroke="#171008" stroke-width="1.20772" stroke-linecap="round" stroke-linejoin="round"/>
<path d="M57.4028 187.973C57.4028 187.973 52.894 184.793 48.8682 187.289" stroke="#171008" stroke-width="1.20772" stroke-linecap="round" stroke-linejoin="round"/>
<path d="M56.3564 182.055C56.3564 182.055 53.4579 178.593 49.5932 180.606" stroke="#171008" stroke-width="1.20772" stroke-linecap="round" stroke-linejoin="round"/>
<path d="M55.2695 175.694L52.6931 174.326" stroke="#171008" stroke-width="1.20772" stroke-linecap="round" stroke-linejoin="round"/>
<path d="M95.6071 170.461L107.282 164.302L137.434 148.36L145.285 163.215L123.666 174.648L109.858 181.974L93.3527 190.71C91.7021 189.02 86.6297 183.383 85.5025 176.016C85.5025 176.016 85.5025 175.936 85.5025 175.896L95.6474 170.541L95.6071 170.461Z" fill="#FFD000" stroke="#171008" stroke-width="1.20772" stroke-linecap="round" stroke-linejoin="round"/>
<path d="M81.7989 173.842L85.4623 175.896C86.5895 183.263 91.6619 188.939 93.3125 190.59C93.3125 190.59 87.0324 193.528 78.3368 188.617L74.6331 186.524C75.0759 184.511 76.8473 178.069 81.7587 173.762L81.7989 173.842Z" fill="#FFF6EA" stroke="#171008" stroke-width="1.20772" stroke-linecap="round" stroke-linejoin="round"/>
<path d="M107.926 191.515L107.161 195.662C113.682 199.446 121.331 199.003 123.666 198.721L124.431 194.575C122.056 194.816 114.407 195.259 107.926 191.515Z" fill="#FFF6EA" stroke="#171008" stroke-width="1.20772" stroke-linecap="round" stroke-linejoin="round"/>
<path d="M109.174 185.034L107.966 191.516C114.488 195.3 122.137 194.857 124.471 194.575L125.679 188.094C123.304 188.335 115.655 188.778 109.174 185.034Z" fill="#FF6E00" stroke="#171008" stroke-width="1.20772" stroke-linecap="round" stroke-linejoin="round"/>
<path d="M110.059 180.243L109.174 185.034C115.695 188.818 123.344 188.375 125.679 188.094L126.565 183.303C124.19 183.545 116.541 183.987 110.059 180.243Z" fill="#FFF6EA" stroke="#171008" stroke-width="1.20772" stroke-linecap="round" stroke-linejoin="round"/>
<path d="M137.474 125.574L132.966 149.608L130.067 164.986L126.605 183.343C124.23 183.585 116.581 184.028 110.099 180.284L112.233 169.012L114.689 156.009L121.009 122.514L137.515 125.614L137.474 125.574Z" fill="#FFD000" stroke="#171008" stroke-width="1.20772" stroke-linecap="round" stroke-linejoin="round"/>
<path d="M107.161 195.662L101.525 225.614L118.03 228.713L123.667 198.762C121.291 199.003 113.642 199.446 107.161 195.702V195.662Z" fill="#FF6E00" stroke="#171008" stroke-width="1.20772" stroke-linecap="round" stroke-linejoin="round"/>
<path d="M117.185 223.117L117.064 220.501C116.903 216.918 120.003 214.06 123.586 214.502C126.163 214.824 128.216 216.837 128.578 219.414L129.343 224.526C144.037 228.592 159.576 233.866 156.718 249.124L99.1499 238.294L102.773 219.092C108.087 223.681 117.225 223.158 117.225 223.158L117.185 223.117Z" fill="#FF6E00" stroke="#171008" stroke-width="1.20772" stroke-linecap="round" stroke-linejoin="round"/>
<path d="M156.63 248.724L99.0744 237.849L98.9025 238.758C98.5736 240.499 99.6965 242.145 101.437 242.474L152.782 252.176C154.523 252.505 156.169 251.382 156.498 249.641L156.67 248.731L156.63 248.724Z" fill="#FFF6EA" stroke="#171008" stroke-width="1.20772" stroke-linecap="round" stroke-linejoin="round"/>
<path d="M143.03 229.156C143.03 229.156 138.602 229.639 137.475 234.43" stroke="#171008" stroke-width="1.20772" stroke-linecap="round" stroke-linejoin="round"/>
<path d="M136.669 226.781C136.669 226.781 132.241 227.264 131.114 232.055" stroke="#171008" stroke-width="1.20772" stroke-linecap="round" stroke-linejoin="round"/>
<path d="M129.866 224.607C129.866 224.607 125.437 225.09 124.31 229.881" stroke="#171008" stroke-width="1.20772" stroke-linecap="round" stroke-linejoin="round"/>
<path d="M81.9595 117.362C82.8049 120.059 75.9209 125.735 77.0481 128.271C78.2155 130.848 87.0319 129.318 88.4812 131.693C89.9707 134.068 84.6164 141.275 86.3475 143.448C88.1188 145.622 96.2911 142.039 98.2637 144.012C100.277 145.985 96.8144 154.237 99.0286 155.928C101.243 157.659 108.328 152.184 110.743 153.634C113.159 155.043 111.75 163.899 114.326 165.026C116.863 166.154 122.458 159.189 125.156 159.994C127.813 160.799 128.577 169.736 131.355 170.22C134.093 170.703 137.837 162.571 140.655 162.732C143.432 162.893 146.291 171.347 149.109 171.145C151.886 170.944 153.537 162.168 156.355 161.645C159.133 161.121 163.964 168.65 166.58 167.804C169.278 166.959 168.835 158.022 171.331 156.854C173.907 155.687 180.389 161.846 182.724 160.397C185.139 158.907 182.522 150.373 184.696 148.601C186.91 146.87 194.64 151.258 196.612 149.286C198.585 147.273 194.036 139.584 195.727 137.37C197.418 135.155 206.033 137.611 207.482 135.196C208.931 132.78 202.651 126.42 203.778 123.843C204.905 121.307 213.843 121.629 214.648 118.932C215.453 116.275 207.844 111.565 208.327 108.787C208.81 106.049 217.546 104.238 217.707 101.42C217.828 98.642 209.334 95.9045 209.132 93.0865C209.092 92.4021 209.535 91.6775 210.219 90.8724C212.353 88.4972 216.862 85.7597 216.459 83.6663C215.936 80.8885 206.999 80.2444 206.153 77.6277C205.992 77.1043 206.113 76.5005 206.395 75.8161C207.603 72.8773 211.991 68.7711 211.025 66.7582C209.857 64.1817 201.041 65.7115 199.591 63.3363C198.102 60.9209 203.456 53.7551 201.725 51.5812C199.994 49.367 191.781 52.9902 189.809 51.0176C187.796 49.045 191.258 40.7922 189.044 39.1014C186.83 37.4106 179.745 42.8454 177.329 41.3961C174.914 39.9871 176.323 31.1305 173.746 30.0033C171.21 28.876 165.614 35.8406 162.917 35.0354C160.26 34.2303 159.495 25.3334 156.717 24.8101C153.98 24.327 150.236 32.459 147.418 32.2979C144.64 32.1772 141.782 23.6829 138.964 23.8841C136.186 24.0854 134.536 32.8615 131.718 33.3849C128.94 33.9082 124.109 26.3801 121.492 27.2255C118.795 28.0709 119.238 37.008 116.742 38.1755C114.165 39.343 107.684 33.1836 105.349 34.6328C102.934 36.1224 105.55 44.6569 103.376 46.4283C101.162 48.1996 93.3926 43.7713 91.4602 45.7439C89.4876 47.7567 94.0367 55.4459 92.3459 57.6601C90.6551 59.8742 82.04 57.4185 80.5907 59.8339C79.1817 62.2494 85.4216 68.6101 84.2944 71.1865C83.1672 73.7227 74.2301 73.4007 73.4249 76.0979C72.6198 78.7549 80.2284 83.465 79.7453 86.2428C79.2623 88.9803 70.5264 90.8321 70.3654 93.6501C70.2043 96.4279 78.7389 99.1654 78.9402 101.983C79.1415 104.761 71.0497 108.626 71.6133 111.404C72.1367 114.181 81.0738 114.825 81.9192 117.442L81.9595 117.362Z" fill="#FF6E00" stroke="#171008" stroke-width="1.20772" stroke-miterlimit="10"/>
<path d="M69.4802 74.9302C80.8328 58.8676 81.96 54.9626 81.96 54.9626C81.96 54.9626 75.6396 42.4426 74.5124 31.6133C74.1098 27.9499 81.2756 17.4428 99.0694 8.42512C116.903 -0.632783 129.584 -0.149693 132.322 2.306C140.373 9.63284 146.734 22.1126 146.734 22.1126C146.734 22.1126 150.558 23.5216 170.204 23.8437C171.653 23.8437 172.781 24.8099 172.861 26.1383C173.545 37.2494 155.51 55.1639 129.504 68.3683C103.457 81.5727 78.3771 85.5179 69.8023 78.3924C68.7958 77.547 68.6751 76.0977 69.5205 74.89L69.4802 74.9302Z" fill="#FFD000" stroke="#171008" stroke-width="1.20772" stroke-linecap="round" stroke-linejoin="round"/>
<path d="M132.322 2.30615C132.322 2.30615 109.456 28.876 74.5122 31.6135" stroke="#171008" stroke-width="1.20772" stroke-miterlimit="10"/>
<path d="M146.734 22.1125C146.734 22.1125 122.62 54.8418 81.9599 54.9625" stroke="#171008" stroke-width="1.20772" stroke-miterlimit="10"/>
<path d="M127.531 98.642C134.214 102.909 141.5 104.761 148.666 103.352C155.631 102.024 161.589 97.8369 166.178 91.7178" stroke="#171008" stroke-width="1.20772" stroke-linecap="round" stroke-linejoin="round"/>
<path d="M121.935 102.627C124.552 101.822 126.605 100.293 127.853 98.0784C129.101 95.8642 129.262 93.4488 128.618 90.9126" stroke="#171008" stroke-width="1.20772" stroke-linecap="round" stroke-linejoin="round"/>
<path d="M118.152 121.146C118.554 122.474 118.433 123.883 117.709 125.091C110.06 138.456 101.485 159.913 132.966 159.471C133.449 159.471 133.933 159.471 134.456 159.471L136.267 158.786C137.113 156.21 138.602 153.835 140.535 151.782C141.622 150.614 142.91 149.648 144.279 148.883C144.399 148.802 144.56 148.722 144.681 148.682C146.131 147.917 147.499 146.83 148.586 145.582C150.639 143.166 151.042 139.865 153.055 137.45C155.591 134.39 159.657 135.075 161.67 138.416C162.878 140.429 162.998 142.965 161.67 144.938L160.543 146.629C160.543 146.629 163.804 146.508 164.89 146.548C170.164 146.87 175.156 150.05 178.296 154.197C179.625 155.968 181.235 159.35 179.383 161.322C179.383 161.322 183.047 164.986 180.228 169.213C180.228 169.213 177.853 173.078 173.828 171.065C173.828 171.065 168.473 168.045 166.179 167.361C165.977 167.321 165.857 167.522 166.018 167.683C166.984 168.529 168.956 170.461 170.245 172.715C171.935 175.694 171.171 179.559 168.232 181.25C168.192 181.25 168.151 181.29 168.111 181.33C167.306 181.773 166.38 182.015 165.454 181.733C162.676 181.008 155.953 175.453 155.953 175.453C155.953 175.453 153.659 176.862 152.531 177.264C149.834 178.19 146.453 177.627 143.997 176.54C142.507 175.896 141.098 174.97 139.931 173.843C139.488 173.44 139.045 172.957 138.683 172.514C138.683 172.514 80.6721 171.87 109.013 120.26C111.107 116.436 116.823 116.999 118.111 121.186L118.152 121.146Z" fill="#FFD000" stroke="#171008" stroke-width="1.20772" stroke-linecap="round" stroke-linejoin="round"/>
<path d="M179.423 161.282C179.423 161.282 175.598 156.129 163.521 154.318Z" fill="#FFD000"/>
<path d="M179.423 161.282C179.423 161.282 175.598 156.129 163.521 154.318" stroke="#171008" stroke-width="1.20772" stroke-linecap="round" stroke-linejoin="round"/>
<path d="M161.025 146.548C161.025 146.548 159.616 146.468 157.241 147.997Z" fill="#FFD000"/>
<path d="M161.025 146.548C161.025 146.548 159.616 146.468 157.241 147.997" stroke="#171008" stroke-width="1.20772" stroke-linecap="round" stroke-linejoin="round"/>
<path d="M142.064 65.7115C144.117 76.5005 151.363 84.1494 158.207 82.8612C162.676 82.0158 165.856 77.5874 166.983 71.6294C167.587 68.4088 167.627 64.7454 166.903 60.9612C166.42 58.3444 165.574 55.8887 164.568 53.7148L142.064 65.7115Z" fill="#FFF6EA" stroke="#171008" stroke-width="1.20772" stroke-miterlimit="10"/>
<path d="M162.112 73.6821C159.177 73.6821 156.798 71.303 156.798 68.3682C156.798 65.4333 159.177 63.0542 162.112 63.0542C165.047 63.0542 167.426 65.4333 167.426 68.3682C167.426 71.303 165.047 73.6821 162.112 73.6821Z" fill="#171008"/>
<path d="M142.064 65.7115L164.568 53.7148C163.481 51.4604 162.152 49.4475 160.663 47.8775C157.724 44.7777 154.222 43.1674 150.76 43.8115C143.876 45.14 140.011 54.9225 142.064 65.6712V65.7115Z" fill="#FF6E00" stroke="#171008" stroke-width="1.20772" stroke-miterlimit="10"/>
<path d="M122.419 71.9913C124.472 82.7803 131.718 90.4292 138.562 89.1409C143.03 88.2955 146.211 83.8672 147.338 77.9091C147.942 74.6886 147.982 71.0251 147.257 67.241C146.774 64.6242 145.929 62.1685 144.922 59.9946L122.419 71.9913Z" fill="#FFF6EA" stroke="#171008" stroke-width="1.20772" stroke-miterlimit="10"/>
<path d="M141.943 77.9092C139.009 77.9092 136.629 75.53 136.629 72.5952C136.629 69.6604 139.009 67.2812 141.943 67.2812C144.878 67.2812 147.257 69.6604 147.257 72.5952C147.257 75.53 144.878 77.9092 141.943 77.9092Z" fill="#171008"/>
<path d="M122.419 71.9915L144.922 59.9948C143.835 57.7404 142.507 55.7275 141.017 54.1575C138.079 51.0577 134.576 49.4474 131.114 50.0915C124.23 51.42 120.365 61.2025 122.419 71.9513V71.9915Z" fill="#FF6E00" stroke="#171008" stroke-width="1.20772" stroke-miterlimit="10"/>
<path d="M155.631 36.6053L141.259 35.9209" stroke="#171008" stroke-width="1.20772" stroke-linecap="round" stroke-linejoin="round"/>
<path d="M123.062 46.7502L117.346 60.3572" stroke="#171008" stroke-width="1.20772" stroke-linecap="round" stroke-linejoin="round"/>
<path d="M114.528 100.936C109.37 100.936 105.188 96.755 105.188 91.5968C105.188 86.4386 109.37 82.2571 114.528 82.2571C119.686 82.2571 123.868 86.4386 123.868 91.5968C123.868 96.755 119.686 100.936 114.528 100.936Z" fill="#FFD000" stroke="#171008" stroke-width="1.20772" stroke-linecap="round" stroke-linejoin="round"/>
<path d="M181.033 82.5388C175.875 82.5388 171.694 78.3573 171.694 73.1991C171.694 68.0409 175.875 63.8594 181.033 63.8594C186.192 63.8594 190.373 68.0409 190.373 73.1991C190.373 78.3573 186.192 82.5388 181.033 82.5388Z" fill="#FFD000" stroke="#171008" stroke-width="1.20772" stroke-linecap="round" stroke-linejoin="round"/>
<path d="M103.619 33.2238C103.82 33.1031 104.021 33.0225 104.182 32.9823C104.062 32.9823 103.901 32.9823 103.739 32.9018C103.256 32.781 102.894 32.4992 102.934 32.2979C102.975 32.0966 103.417 32.0161 103.941 32.1771C104.102 32.2174 104.263 32.2979 104.384 32.3382C104.263 32.2174 104.102 32.0564 103.981 31.8551C103.739 31.4122 103.659 30.9694 103.86 30.8486C104.062 30.7279 104.384 31.0097 104.665 31.4525C104.706 31.533 104.746 31.6135 104.786 31.6538C105.43 30.3656 106.88 29.6409 108.329 29.963C110.946 30.5266 113.764 30.124 116.219 28.6747C118.715 27.2255 120.406 24.9711 121.211 22.4349C121.654 21.0259 122.982 20.1402 124.432 20.1804C124.391 20.0999 124.351 20.0597 124.311 19.9792C124.069 19.5363 123.989 19.0935 124.19 18.9727C124.391 18.852 124.714 19.1338 124.995 19.5766C125.116 19.7779 125.197 19.9792 125.237 20.1402C125.237 20.0194 125.237 19.8584 125.317 19.6974C125.438 19.2143 125.72 18.852 125.921 18.8922C126.123 18.9325 126.203 19.3753 126.042 19.8986C126.002 20.0597 125.921 20.2207 125.881 20.3415C126.002 20.2207 126.163 20.0597 126.364 19.9389C126.807 19.6974 127.25 19.6168 127.371 19.8181C127.491 20.0194 127.209 20.3415 126.767 20.6233C126.606 20.7038 126.445 20.7843 126.284 20.8246C127.371 21.6297 127.854 23.0387 127.451 24.4075C126.163 28.4332 123.466 31.9758 119.561 34.2705C115.656 36.5652 111.227 37.169 107.081 36.3236C105.672 36.0418 104.706 34.8744 104.545 33.5459C104.424 33.6667 104.303 33.7472 104.142 33.8679C103.699 34.1095 103.256 34.19 103.136 33.9887C103.015 33.7874 103.297 33.4654 103.739 33.1836L103.619 33.2238Z" fill="#FF6E00" stroke="#171008" stroke-width="1.20772" stroke-linecap="round" stroke-linejoin="round"/>
<path d="M65.1323 129.439H22.1778" stroke="#171008" stroke-width="1.20772" stroke-linecap="round" stroke-linejoin="round"/>
<path d="M38.7639 114.946H66.4609" stroke="#171008" stroke-width="1.20772" stroke-linecap="round" stroke-linejoin="round"/>
<path d="M30.0684 152.989H15.3342" stroke="#171008" stroke-width="1.20772" stroke-linecap="round" stroke-linejoin="round"/>
</svg>
