<svg width="50" height="50" viewBox="0 0 50 50" fill="none" xmlns="http://www.w3.org/2000/svg">
<circle cx="25" cy="25" r="25" fill="#F2F3F5"/>
<path fill-rule="evenodd" clip-rule="evenodd" d="M24.2485 16.5002C20.2231 16.5002 16.96 19.7634 16.96 23.7888C16.96 27.8141 20.2231 31.0773 24.2485 31.0773C28.2738 31.0773 31.537 27.8141 31.537 23.7888C31.537 19.7634 28.2738 16.5002 24.2485 16.5002ZM15.46 23.7888C15.46 18.935 19.3947 15.0002 24.2485 15.0002C29.1023 15.0002 33.037 18.935 33.037 23.7888C33.037 28.6426 29.1023 32.5773 24.2485 32.5773C19.3947 32.5773 15.46 28.6426 15.46 23.7888Z" fill="black"/>
<path fill-rule="evenodd" clip-rule="evenodd" d="M29.7358 28.6477L35.3513 34.2486L34.292 35.3106L28.6765 29.7097L29.7358 28.6477Z" fill="black"/>
</svg>
