<svg width="98" height="64" viewBox="0 0 98 64" fill="none" xmlns="http://www.w3.org/2000/svg">
<circle cx="30" cy="32" r="30" fill="#EAE3DA"/>
<path fill-rule="evenodd" clip-rule="evenodd" d="M42.5 32C42.5 38.9036 36.9036 44.5 30 44.5C23.0964 44.5 17.5 38.9036 17.5 32C17.5 25.0964 23.0964 19.5 30 19.5C36.9036 19.5 42.5 25.0964 42.5 32ZM35.0379 28.2121C35.404 28.5782 35.404 29.1718 35.0379 29.5379L28.7879 35.7879C28.4218 36.154 27.8282 36.154 27.4621 35.7879L24.9621 33.2879C24.596 32.9218 24.596 32.3282 24.9621 31.9621C25.3282 31.596 25.9218 31.596 26.2879 31.9621L28.125 33.7992L30.9185 31.0056L33.7121 28.2121C34.0782 27.846 34.6718 27.846 35.0379 28.2121Z" fill="#A0968A"/>
<circle cx="66" cy="32" r="30.75" fill="#FF6E00" stroke="#FDF7EE" stroke-width="1.5"/>
<path fill-rule="evenodd" clip-rule="evenodd" d="M78.5 32C78.5 38.9036 72.9036 44.5 66 44.5C59.0964 44.5 53.5 38.9036 53.5 32C53.5 25.0964 59.0964 19.5 66 19.5C72.9036 19.5 78.5 25.0964 78.5 32ZM71.0379 28.2121C71.404 28.5782 71.404 29.1718 71.0379 29.5379L64.7879 35.7879C64.4218 36.154 63.8282 36.154 63.4621 35.7879L60.9621 33.2879C60.596 32.9218 60.596 32.3282 60.9621 31.9621C61.3282 31.596 61.9218 31.596 62.2879 31.9621L64.125 33.7992L66.9185 31.0056L69.7121 28.2121C70.0782 27.846 70.6718 27.846 71.0379 28.2121Z" fill="white"/>
</svg>
